<?xml version="1.0" encoding="utf-8"?>
<!-- Generator: Adobe Illustrator 27.5.0, SVG Export Plug-In . SVG Version: 6.00 Build 0)  -->
<svg version="1.1" id="Capa_1" xmlns="http://www.w3.org/2000/svg" xmlns:xlink="http://www.w3.org/1999/xlink" x="0px" y="0px"
	 viewBox="0 0 425.197 425.197" style="enable-background:new 0 0 425.197 425.197;" xml:space="preserve">
<g>
	<path style="fill:#0D1226;" d="M275.668,374.59c0,4.751,3.887,8.638,8.638,8.638h35.327c4.751,0,8.638-3.887,8.638-8.638v-30.081
		h-52.602V374.59z"/>
	<path style="fill:#0D1226;" d="M96.927,374.59c0,4.751,3.887,8.638,8.638,8.638h35.327c4.751,0,8.638-3.887,8.638-8.638v-30.081
		H96.927V374.59z"/>
	<path style="fill:#1A1F33;" d="M295.195,313.062h-11.686H141.688h-11.869H85.424H74.363v18.465c0,7.169,5.812,12.981,12.981,12.981
		h9.583h52.602h126.139h52.602h9.583c7.169,0,12.981-5.812,12.981-12.981v-18.465h-11.245H295.195z"/>
	<polygon style="fill:#421B13;" points="380.618,111.793 350.834,106.239 350.834,110.308 376.618,115.116 376.618,120.062 
		380.618,120.062 	"/>
	<path style="fill:#281816;" d="M387.979,120.062h-7.361h-4h-7.361c-4.607,0-8.376,3.769-8.376,8.376v81.033
		c0,4.606,3.769,8.376,8.376,8.376h18.722c4.607,0,8.376-3.769,8.376-8.376v-81.033
		C396.355,123.831,392.586,120.062,387.979,120.062z"/>
	<polygon style="fill:#421B13;" points="44.579,111.793 44.579,120.062 48.579,120.062 48.578,115.116 74.363,110.308 
		74.363,106.239 	"/>
	<path style="fill:#281816;" d="M37.218,120.062c-4.607,0-8.376,3.769-8.376,8.376v81.033c0,4.606,3.769,8.376,8.376,8.376H55.94
		c4.607,0,8.376-3.769,8.376-8.376v-81.033c0-4.607-3.769-8.376-8.376-8.376h-7.361h-4H37.218z"/>
	<path style="fill:#EBA444;" d="M92.516,88.258c0-19.831,18.342-31.781,40.761-31.781H291.92c22.419,0,40.761,11.949,40.761,31.781
		v12.545h18.153V85.617c0-24.006-22.204-43.648-49.342-43.648H123.705c-27.138,0-49.342,19.641-49.342,43.648v15.186h18.153V88.258z
		"/>
	<path style="fill:#421B13;" d="M291.92,56.477H133.277c-22.419,0-40.761,11.949-40.761,31.781v12.545h53.784V73.26
		c0-1.258,1.164-2.288,2.587-2.288h127.422c1.423,0,2.587,1.03,2.587,2.288v27.544h53.784V88.258
		C332.681,68.427,314.338,56.477,291.92,56.477z"/>
	<path style="fill:#EEBB46;" d="M332.681,100.803h-53.784v3.709c0,1.258-1.164,2.288-2.587,2.288H148.888
		c-1.423,0-2.587-1.03-2.587-2.288v-3.709H92.516H74.363v5.436v4.069v202.754h11.061v-10.905c-3.348-1.243-5.754-4.466-5.754-8.232
		v-1.608c0-3.766,2.406-6.989,5.754-8.232V243.85c0-7.372,6.651-13.403,14.78-13.403h14.834c8.129,0,14.78,6.031,14.78,13.403
		v69.213h11.869v-65.219c0-6.757,5.478-12.235,12.235-12.235h117.352c6.757,0,12.235,5.478,12.235,12.235v65.219h11.686V243.85
		c0-7.372,6.651-13.403,14.78-13.403h14.834c8.129,0,14.78,6.031,14.78,13.403v40.169c3.443,1.191,5.938,4.464,5.938,8.299v1.608
		c0,3.835-2.494,7.108-5.938,8.299v10.837h11.245V110.308v-4.069v-5.436H332.681z"/>
	<path style="fill:#EBA143;" d="M271.275,235.609H153.922c-6.757,0-12.235,5.478-12.235,12.235v65.219h141.822v-65.219
		C283.509,241.086,278.032,235.609,271.275,235.609z"/>
	<path style="fill:#1A1F33;" d="M154.625,253.206h115.948c1.329,0,2.417-1.088,2.417-2.417s-1.088-2.417-2.417-2.417H154.625
		c-1.329,0-2.417,1.088-2.417,2.417S153.295,253.206,154.625,253.206z"/>
	<path style="fill:#1A1F33;" d="M154.625,262.391h115.948c1.329,0,2.417-1.088,2.417-2.417c0-1.329-1.088-2.417-2.417-2.417H154.625
		c-1.329,0-2.417,1.088-2.417,2.417C152.207,261.304,153.295,262.391,154.625,262.391z"/>
	<path style="fill:#1A1F33;" d="M154.625,271.577h115.948c1.329,0,2.417-1.088,2.417-2.417c0-1.329-1.088-2.417-2.417-2.417H154.625
		c-1.329,0-2.417,1.088-2.417,2.417C152.207,270.489,153.295,271.577,154.625,271.577z"/>
	<path style="fill:#1A1F33;" d="M154.625,280.763h115.948c1.329,0,2.417-1.088,2.417-2.417c0-1.329-1.088-2.417-2.417-2.417H154.625
		c-1.329,0-2.417,1.088-2.417,2.417C152.207,279.675,153.295,280.763,154.625,280.763z"/>
	<path style="fill:#1A1F33;" d="M154.625,289.948h115.948c1.329,0,2.417-1.088,2.417-2.417c0-1.329-1.088-2.417-2.417-2.417H154.625
		c-1.329,0-2.417,1.088-2.417,2.417C152.207,288.861,153.295,289.948,154.625,289.948z"/>
	<path style="fill:#1A1F33;" d="M154.625,298.463h115.948c1.329,0,2.417-1.088,2.417-2.417s-1.088-2.417-2.417-2.417H154.625
		c-1.329,0-2.417,1.088-2.417,2.417S153.295,298.463,154.625,298.463z"/>
	<path style="fill:#1A1F33;" d="M154.625,306.978h115.948c1.329,0,2.417-1.088,2.417-2.417c0-1.329-1.088-2.417-2.417-2.417H154.625
		c-1.329,0-2.417,1.088-2.417,2.417C152.207,305.891,153.295,306.978,154.625,306.978z"/>
	<path style="fill:#421B13;" d="M323.589,111.693H215.05h-4.903H101.608c-8.8,0-16,7.2-16,16v78.865c0,8.8,7.2,16,16,16h108.539
		h4.903h108.539c8.8,0,16-7.2,16-16v-78.865C339.589,118.894,332.389,111.693,323.589,111.693z"/>
	<polygon style="fill:#7AD0E2;" points="210.147,115.308 210.128,115.308 185.813,218.944 196.05,218.944 210.147,158.863 	"/>
	<path style="fill:#7AD0E2;" d="M319.135,115.308h-18.272l-24.316,103.635h42.588c8.8,0,16-7.2,16-16v-71.635
		C335.135,122.508,327.935,115.308,319.135,115.308z"/>
	<polygon style="fill:#7AD0E2;" points="215.05,115.308 215.05,137.965 220.366,115.308 	"/>
	<polygon style="fill:#7AD0E2;" points="247.218,115.308 222.902,218.944 237.928,218.944 262.244,115.308 	"/>
	<path style="fill:#7AD0E2;" d="M106.062,115.308c-8.8,0-16,7.2-16,16v71.635c0,8.8,7.2,16,16,16h26.046l24.316-103.635H106.062z"/>
	<polygon style="fill:#B7E2E5;" points="156.424,115.308 132.108,218.944 185.813,218.944 210.128,115.308 	"/>
	<polygon style="fill:#B7E2E5;" points="196.05,218.944 210.147,218.944 210.147,158.863 	"/>
	<polygon style="fill:#B7E2E5;" points="220.366,115.308 215.05,137.965 215.05,218.944 222.902,218.944 247.218,115.308 	"/>
	<polygon style="fill:#B7E2E5;" points="262.244,115.308 237.928,218.944 276.547,218.944 300.863,115.308 	"/>
	<path style="fill:#F2D847;" d="M339.589,313.062v-10.837c-0.895,0.309-1.851,0.486-2.848,0.486h-30.683
		c-4.832,0-8.785-3.953-8.785-8.785v-1.608c0-4.832,3.953-8.785,8.785-8.785h30.683c0.997,0,1.952,0.176,2.848,0.486V243.85
		c0-7.372-6.651-13.403-14.78-13.403h-14.834c-8.129,0-14.78,6.031-14.78,13.403v69.213H339.589z"/>
	<path style="fill:#F2D847;" d="M129.818,313.062V243.85c0-7.372-6.651-13.403-14.78-13.403h-14.834
		c-8.129,0-14.78,6.031-14.78,13.403v40.236c0.947-0.352,1.966-0.553,3.031-0.553h30.683c4.832,0,8.785,3.953,8.785,8.785v1.608
		c0,4.832-3.953,8.785-8.785,8.785H88.455c-1.066,0-2.084-0.202-3.031-0.553v10.905H129.818z"/>
	<path style="fill:#1A1F33;" d="M119.138,283.532H88.455c-1.066,0-2.084,0.202-3.031,0.553c-3.348,1.243-5.754,4.465-5.754,8.232
		v1.608c0,3.766,2.406,6.989,5.754,8.232c0.947,0.352,1.966,0.553,3.031,0.553h30.683c4.832,0,8.785-3.953,8.785-8.785v-1.608
		C127.924,287.486,123.97,283.532,119.138,283.532z"/>
	<path style="fill:#C61A41;" d="M98.221,293.122c0-3.716-3.013-6.729-6.729-6.729c-3.717,0-6.729,3.013-6.729,6.729
		s3.013,6.729,6.729,6.729C95.208,299.851,98.221,296.838,98.221,293.122z"/>
	<path style="fill:#F5834E;" d="M100.144,293.122c0,3.388,2.772,6.16,6.16,6.16h10.367c3.388,0,6.16-2.772,6.16-6.16
		c0-3.388-2.772-6.16-6.16-6.16h-10.367C102.916,286.962,100.144,289.734,100.144,293.122z"/>
	<path style="fill:#1A1F33;" d="M339.589,284.018c-0.895-0.31-1.851-0.486-2.848-0.486h-30.683c-4.832,0-8.785,3.953-8.785,8.785
		v1.608c0,4.832,3.953,8.785,8.785,8.785h30.683c0.997,0,1.952-0.176,2.848-0.486c3.443-1.191,5.938-4.464,5.938-8.299v-1.608
		C345.527,288.483,343.033,285.209,339.589,284.018z"/>
	<path style="fill:#C61A41;" d="M309.095,286.392c-3.717,0-6.729,3.013-6.729,6.729s3.013,6.729,6.729,6.729
		c3.716,0,6.729-3.013,6.729-6.729S312.811,286.392,309.095,286.392z"/>
	<path style="fill:#F5834E;" d="M323.907,286.962c-3.388,0-6.16,2.772-6.16,6.16c0,3.388,2.772,6.16,6.16,6.16h10.367
		c3.388,0,6.16-2.772,6.16-6.16c0-3.388-2.772-6.16-6.16-6.16H323.907z"/>
	<circle style="fill:#E56C3D;" cx="304.709" cy="88.886" r="5.361"/>
	<path style="fill:#E56C3D;" d="M320.351,83.525c-2.961,0-5.361,2.4-5.361,5.361s2.4,5.361,5.361,5.361
		c2.961,0,5.361-2.4,5.361-5.361S323.312,83.525,320.351,83.525z"/>
	<path style="fill:#E56C3D;" d="M104.846,83.525c-2.961,0-5.361,2.4-5.361,5.361s2.4,5.361,5.361,5.361
		c2.961,0,5.361-2.4,5.361-5.361S107.806,83.525,104.846,83.525z"/>
	<circle style="fill:#E56C3D;" cx="120.488" cy="88.886" r="5.361"/>
	<path style="fill:#1A1F33;" d="M276.309,70.971H148.888c-1.423,0-2.587,1.03-2.587,2.288v27.544v3.709
		c0,1.258,1.164,2.288,2.587,2.288h127.422c1.423,0,2.587-1.03,2.587-2.288v-3.709V73.26
		C278.896,72.001,277.732,70.971,276.309,70.971z"/>
</g>
</svg>
