<?xml version="1.0" encoding="utf-8"?>
<!-- Generator: Adobe Illustrator 27.5.0, SVG Export Plug-In . SVG Version: 6.00 Build 0)  -->
<svg version="1.1" id="Layer_1" xmlns="http://www.w3.org/2000/svg" xmlns:xlink="http://www.w3.org/1999/xlink" x="0px" y="0px"
	 viewBox="0 0 4000 4000" style="enable-background:new 0 0 4000 4000;" xml:space="preserve">
<g>
	<g>
		<rect style="fill:#FFF3AB;" width="4000" height="4000"/>
	</g>
	<g>
		<g>
			<path style="fill:#F9D230;" d="M3469.729,2247.752h-89.051c0,0,13.103,112.803,19.002,112.065
				c5.899-0.737,61.198-56.031,61.198-56.031"/>
		</g>
		<g>
			<path style="fill:#F9D230;" d="M3372.386,2205.969v436.463H1913.858V1193.372l94.519-29.491h1120.697
				c101.855,5.551,136.351,69.539,132.733,166.635v794.813L3372.386,2205.969z"/>
		</g>
		<g style="opacity:0.6;">
			<path style="fill:#FFFFFF;" d="M515.47,1203.193h2703.566l39.73,70.81H474.263
				C474.263,1274.003,476.865,1229.864,515.47,1203.193z"/>
		</g>
		<g>
			<path style="fill:#FFA403;" d="M2150.415,1549.478v-87.715c0-25.519,20.687-46.205,46.205-46.205h943.397
				c25.519,0,46.205,20.687,46.205,46.205v115.022"/>
		</g>
		<g>
			<path style="fill:#FFA403;" d="M2543.919,2275.013c0,0-82.128-27.756-112.362-27.508c-30.185,0.248-34.992,91.644-34.992,91.644
				v303.284h-439.189v-503.821c0,0,274.388-1.933,407.865,27.062c124.455,27.013,171.096,37.173,177.836,95.857
				C2543.522,2265.744,2543.82,2270.255,2543.919,2275.013z"/>
		</g>
		<g>
			<path style="fill:#660107;" d="M3372.399,2654.823H1913.857c-6.844,0-12.392-5.548-12.392-12.39V1193.379
				c0-5.421,3.526-10.213,8.701-11.828l94.521-29.498c1.196-0.373,2.44-0.564,3.692-0.564h1120.706c0.224,0,0.449,0.007,0.673,0.02
				c100.086,5.446,148.678,65.83,144.426,179.474l0.01,788.069l105.505,76.9c3.201,2.333,5.094,6.056,5.094,10.013v436.469
				C3384.792,2649.274,3379.243,2654.823,3372.399,2654.823z M1926.249,2630.043h1433.759v-417.779l-105.505-76.9
				c-3.201-2.333-5.094-6.056-5.094-10.013v-794.832c3.755-100.567-34.593-149.442-120.666-154.246H2010.266l-84.017,26.219
				V2630.043z"/>
		</g>
		<g>
			<polyline style="fill:#CC1D1D;" points="685.358,2490.072 474.263,2490.072 432.927,2490.072 432.927,2307.229 474.263,2307.229 
							"/>
		</g>
		<g>
			<g>
				<path style="fill:#775757;" d="M948.091,2420.278H797.678c-83.071,0-150.413,93.091-150.413,207.924
					c0,114.833,67.342,207.924,150.413,207.924h150.413c83.071,0,150.414-93.091,150.414-207.924
					C1098.505,2513.369,1031.162,2420.278,948.091,2420.278z"/>
			</g>
			<g>
				<ellipse style="fill:#8E7575;" cx="797.679" cy="2628.202" rx="150.413" ry="207.924"/>
			</g>
			<g>
				<path style="fill:#660107;" d="M797.679,2848.514c-6.844,0-12.392-5.548-12.392-12.39s5.548-12.39,12.392-12.39
					c76.107,0,138.021-87.713,138.021-195.531s-61.914-195.536-138.021-195.536c-6.844,0-12.392-5.548-12.392-12.39
					c0-6.842,5.548-12.39,12.392-12.39c89.77,0,162.805,98.834,162.805,220.315S887.449,2848.514,797.679,2848.514z"/>
			</g>
			<g>
				<ellipse style="fill:#FFA403;" cx="787.73" cy="2630.909" rx="91.791" ry="126.888"/>
			</g>
			<g>
				
					<ellipse transform="matrix(0.1104 -0.9939 0.9939 0.1104 -1911.635 3091.6396)" style="fill:#F9D230;" cx="771.276" cy="2613.723" rx="107.77" ry="74.838"/>
			</g>
			<g>
				<path style="fill:#660107;" d="M787.729,2767.706c-56.08,0-101.704-61.368-101.704-136.799
					c0-75.431,45.623-136.799,101.704-136.799s101.706,61.367,101.706,136.799C889.435,2706.338,843.81,2767.706,787.729,2767.706z
					 M787.729,2513.93c-45.147,0-81.877,52.477-81.877,116.977s36.73,116.977,81.877,116.977c45.15,0,81.88-52.477,81.88-116.977
					S832.879,2513.93,787.729,2513.93z"/>
			</g>
			<g>
				<path style="fill:#660107;" d="M759.712,2719.216c-40.631,0-73.687-40.829-73.687-91.012c0-50.188,33.055-91.017,73.687-91.017
					s73.687,40.829,73.687,91.017C833.399,2678.387,800.344,2719.216,759.712,2719.216z M759.712,2557.008
					c-29.698,0-53.86,31.938-53.86,71.195c0,39.253,24.162,71.19,53.86,71.19s53.86-31.938,53.86-71.19
					C813.573,2588.946,789.41,2557.008,759.712,2557.008z"/>
			</g>
			<g>
				<path style="fill:#660107;" d="M747.541,2513.549l18.433,31.336c0,0,37.419-36.682,36.497-36.866
					C801.549,2507.835,778.14,2501.752,747.541,2513.549z"/>
			</g>
			<g>
				<path style="fill:#660107;" d="M869.752,2604.608l-20.368,20.897c-4.482,4.598-4.54,11.912-0.133,16.582l23.082,24.456
					C872.332,2666.543,873.438,2623.409,869.752,2604.608z"/>
			</g>
			<g>
				<path style="fill:#660107;" d="M762.471,2746.911c0,0,6.82-20.829,15.852-23.226c9.032-2.396,36.167,28.629,36.167,28.629
					L762.471,2746.911z"/>
			</g>
			<g>
				<path style="fill:#660107;" d="M948.092,2848.514H797.679c-89.77,0-162.805-98.829-162.805-220.311
					s73.035-220.315,162.805-220.315h150.413c89.77,0,162.805,98.834,162.805,220.315S1037.863,2848.514,948.092,2848.514z
					 M797.679,2432.667c-76.104,0-138.021,87.718-138.021,195.536s61.917,195.531,138.021,195.531h150.413
					c76.104,0,138.021-87.713,138.021-195.531s-61.917-195.536-138.021-195.536H797.679z"/>
			</g>
		</g>
		<g>
			<path style="fill:#F9D230;" d="M2008.377,1163.881c0,0-14.126,11.301-27.856,39.304c-8.376,17.001-16.604,40.246-21.362,70.828
				c-3.42,21.808-5.105,47.383-3.866,77.172l3.42,1291.248h-949.652c-3.122-122.424-37.272-200.586-111.123-222.147
				c-12.54,0-100.269,0-100.269,0c-99.921,3.866-153.352,114.444-150.427,222.147H432.927v-152.361h41.336V1301.273
				c0-9.318,0.942-18.438,2.677-27.26c5.551-27.459,19.231-51.943,38.511-70.828h0.05c24.733-24.336,58.684-39.304,96.105-39.304
				H2008.377z"/>
		</g>
		<g style="opacity:0.6;">
			<path style="fill:#FFFFFF;" d="M1980.521,1203.185c-8.376,22.659-16.604,53.641-21.362,94.401H474.263
				c0,0,2.577-58.86,41.188-94.401H1980.521z"/>
		</g>
		<g>
			<path style="fill:#FFA403;" d="M1877.131,1540.668v300.409c-229.284-136.103-381.943,78.46-381.943,78.46v-378.869
				c0-22.403,18.14-40.543,40.543-40.543h300.806C1858.94,1500.125,1877.131,1518.265,1877.131,1540.668z"/>
		</g>
		<g>
			<path style="fill:#FFA403;" d="M659.733,2547.121c-9.12,30.036-13.382,62.798-12.49,95.312H432.927v-95.312H659.733z"/>
		</g>
		<g>
			<path style="fill:#FFA403;" d="M1495.188,2226.589v268.242H980.612c-18.14-38.264-45.351-63.641-82.673-74.544
				c-12.54,0-100.269,0-100.269,0c-50.952,1.982-89.761,31.671-115.187,74.544H432.927v-4.758h41.336v-689.141
				c0,0,15.712,325.389,147.454,386.354C753.459,2248.248,1495.188,2226.589,1495.188,2226.589z"/>
		</g>
		<g>
			<path style="fill:#FFA403;" d="M998.257,2547.121h496.931v95.312h-486.127C1008.17,2606.796,1004.651,2574.926,998.257,2547.121z
				"/>
		</g>
		<g>
			<path style="fill:#660107;" d="M1958.714,2654.823h-949.652c-6.719,0-12.216-5.358-12.387-12.073
				c-3.099-121.496-35.993-190.237-100.552-210.073h-98.454c-93.088,3.611-140.722,110.594-138.038,209.419
				c0.09,3.343-1.173,6.583-3.508,8.979c-2.333,2.396-5.534,3.748-8.879,3.748H432.928c-6.844,0-12.392-5.548-12.392-12.39v-152.36
				c0-6.842,5.548-12.39,12.392-12.39h28.944V1301.272c0-82.59,67.172-149.784,149.735-149.784h1396.77
				c5.263,0,9.95,3.326,11.692,8.291c1.742,4.965,0.159,10.489-3.95,13.778c-0.466,0.385-53.958,46.16-48.446,177.105
				c0.007,0.163,0.01,0.327,0.012,0.49l3.421,1291.246c0.007,3.294-1.293,6.451-3.618,8.784S1962.005,2654.823,1958.714,2654.823z
				 M1021.032,2630.043h925.258l-3.386-1278.583c-3.906-93.852,20.5-148.103,38.811-175.188H611.607
				c-68.899,0-124.951,56.073-124.951,125v1188.8c0,6.841-5.548,12.39-12.392,12.39H445.32v127.581h189.451
				c1.427-106.974,57.134-218.066,162.42-222.135l100.747-0.01c1.176,0,2.345,0.166,3.472,0.493
				C975.333,2429.974,1015.547,2504.521,1021.032,2630.043z"/>
		</g>
		<g>
			<g>
				<path style="fill:#775757;" d="M2319.516,2420.278h-150.413c-83.071,0-150.413,93.091-150.413,207.924
					c0,114.833,67.342,207.924,150.413,207.924h150.413c83.071,0,150.414-93.091,150.414-207.924
					C2469.929,2513.369,2402.587,2420.278,2319.516,2420.278z"/>
			</g>
			<g>
				<ellipse style="fill:#8E7575;" cx="2169.103" cy="2628.202" rx="150.413" ry="207.924"/>
			</g>
			<g>
				<path style="fill:#660107;" d="M2169.104,2848.514c-6.844,0-12.392-5.548-12.392-12.39s5.548-12.39,12.392-12.39
					c76.107,0,138.021-87.713,138.021-195.531s-61.914-195.536-138.021-195.536c-6.844,0-12.392-5.548-12.392-12.39
					c0-6.842,5.548-12.39,12.392-12.39c89.77,0,162.805,98.834,162.805,220.315S2258.874,2848.514,2169.104,2848.514z"/>
			</g>
			<g>
				<ellipse style="fill:#FFA403;" cx="2159.154" cy="2630.909" rx="91.791" ry="126.888"/>
			</g>
			<g>
				<ellipse style="fill:#F9D230;" cx="2146.439" cy="2616.885" rx="75.022" ry="104.699"/>
			</g>
			<g>
				<path style="fill:#660107;" d="M2159.154,2767.706c-56.081,0-101.704-61.368-101.704-136.799
					c0-75.431,45.623-136.799,101.704-136.799c56.08,0,101.704,61.367,101.704,136.799
					C2260.858,2706.338,2215.234,2767.706,2159.154,2767.706z M2159.154,2513.93c-45.147,0-81.877,52.477-81.877,116.977
					s36.73,116.977,81.877,116.977s81.877-52.477,81.877-116.977S2204.302,2513.93,2159.154,2513.93z"/>
			</g>
			<g>
				<path style="fill:#660107;" d="M2131.137,2719.216c-40.631,0-73.687-40.829-73.687-91.012c0-50.188,33.055-91.017,73.687-91.017
					s73.687,40.829,73.687,91.017C2204.823,2678.387,2171.768,2719.216,2131.137,2719.216z M2131.137,2557.008
					c-29.698,0-53.86,31.938-53.86,71.195c0,39.253,24.162,71.19,53.86,71.19c29.698,0,53.86-31.938,53.86-71.19
					C2184.997,2588.946,2160.835,2557.008,2131.137,2557.008z"/>
			</g>
			<g>
				<path style="fill:#660107;" d="M2118.965,2513.549l18.433,31.336c0,0,37.419-36.682,36.497-36.866
					S2149.564,2501.752,2118.965,2513.549z"/>
			</g>
			<g>
				<path style="fill:#660107;" d="M2241.176,2604.608l-20.368,20.897c-4.482,4.598-4.541,11.912-0.133,16.582l23.082,24.456
					C2243.757,2666.543,2244.863,2623.409,2241.176,2604.608z"/>
			</g>
			<g>
				<path style="fill:#660107;" d="M2133.896,2746.911c0,0,6.82-20.829,15.852-23.226c9.032-2.396,36.167,28.629,36.167,28.629
					L2133.896,2746.911z"/>
			</g>
			<g>
				<path style="fill:#660107;" d="M2319.517,2848.514h-150.413c-89.77,0-162.805-98.829-162.805-220.311
					s73.035-220.315,162.805-220.315h150.413c89.77,0,162.805,98.834,162.805,220.315S2409.287,2848.514,2319.517,2848.514z
					 M2169.104,2432.667c-76.104,0-138.021,87.718-138.021,195.536s61.917,195.531,138.021,195.531h150.413
					c76.104,0,138.021-87.713,138.021-195.531s-61.917-195.536-138.021-195.536H2169.104z"/>
			</g>
		</g>
		<g>
			<g>
				<path style="fill:#8E7575;" d="M3337.007,2420.278h-150.413c-83.071,0-150.413,93.091-150.413,207.924
					c0,114.833,67.342,207.924,150.413,207.924h150.413c83.071,0,150.414-93.091,150.414-207.924
					C3487.421,2513.369,3420.078,2420.278,3337.007,2420.278z"/>
			</g>
			<g>
				<ellipse style="fill:#775757;" cx="3186.594" cy="2628.202" rx="150.413" ry="207.924"/>
			</g>
			<g>
				<path style="fill:#660107;" d="M3186.594,2848.514c-6.844,0-12.392-5.548-12.392-12.39s5.548-12.39,12.392-12.39
					c76.107,0,138.021-87.713,138.021-195.531s-61.914-195.536-138.021-195.536c-6.844,0-12.392-5.548-12.392-12.39
					c0-6.842,5.548-12.39,12.392-12.39c89.77,0,162.805,98.834,162.805,220.315S3276.364,2848.514,3186.594,2848.514z"/>
			</g>
			<g>
				<ellipse style="fill:#FFA403;" cx="3176.645" cy="2630.909" rx="91.791" ry="126.888"/>
			</g>
			<g>
				<path style="fill:#660107;" d="M3176.646,2767.706c-56.08,0-101.706-61.368-101.706-136.799
					c0-75.431,45.625-136.799,101.706-136.799c56.081,0,101.704,61.367,101.704,136.799
					C3278.35,2706.338,3232.727,2767.706,3176.646,2767.706z M3176.646,2513.93c-45.15,0-81.879,52.477-81.879,116.977
					s36.73,116.977,81.879,116.977c45.147,0,81.877-52.477,81.877-116.977S3221.793,2513.93,3176.646,2513.93z"/>
			</g>
			<g>
				<path style="fill:#660107;" d="M3148.627,2719.216c-40.631,0-73.687-40.829-73.687-91.012c0-50.188,33.055-91.017,73.687-91.017
					s73.687,40.829,73.687,91.017C3222.313,2678.387,3189.258,2719.216,3148.627,2719.216z M3148.627,2557.008
					c-29.698,0-53.86,31.938-53.86,71.195c0,39.253,24.162,71.19,53.86,71.19c29.698,0,53.86-31.938,53.86-71.19
					C3202.487,2588.946,3178.325,2557.008,3148.627,2557.008z"/>
			</g>
			<g>
				<path style="fill:#660107;" d="M3136.457,2513.549l18.433,31.336c0,0,37.419-36.682,36.497-36.866
					C3190.465,2507.835,3167.055,2501.752,3136.457,2513.549z"/>
			</g>
			<g>
				<path style="fill:#660107;" d="M3258.667,2604.608l-20.368,20.897c-4.482,4.598-4.54,11.912-0.133,16.582l23.082,24.456
					C3261.248,2666.543,3262.354,2623.409,3258.667,2604.608z"/>
			</g>
			<g>
				<path style="fill:#660107;" d="M3151.387,2746.911c0,0,6.82-20.829,15.853-23.226c9.032-2.396,36.167,28.629,36.167,28.629
					L3151.387,2746.911z"/>
			</g>
			<g>
				<path style="fill:#660107;" d="M3337.007,2848.514h-150.413c-89.77,0-162.805-98.829-162.805-220.311
					s73.035-220.315,162.805-220.315h150.413c89.77,0,162.805,98.834,162.805,220.315S3426.777,2848.514,3337.007,2848.514z
					 M3186.594,2432.667c-76.104,0-138.021,87.718-138.021,195.536s61.917,195.531,138.021,195.531h150.413
					c76.104,0,138.021-87.713,138.021-195.531s-61.917-195.536-138.021-195.536H3186.594z"/>
			</g>
		</g>
		<g>
			<path style="fill:#F9D230;" d="M2561.365,2331.813v310.619h-180.86c-3.123-122.424-37.272-200.586-111.124-222.147
				c-12.54,0-100.268,0-100.268,0c-99.921,3.866-153.352,114.444-150.427,222.147l-10.309-4.659v-258.775
				c0.793-14.374,2.577-27.211,5.303-38.611c0-0.198,0.05-0.396,0.099-0.595c0.05-0.198,0.099-0.446,0.149-0.645
				c0.384-1.659,0.851-3.308,1.363-4.951c15.699-57.848,53.389-77.158,78.733-83.422c14.473-3.618,24.931-3.024,24.931-3.024
				h345.067C2529.346,2244.382,2561.365,2276.847,2561.365,2331.813z"/>
		</g>
		<g>
			<path style="fill:#FFA403;" d="M2543.919,2588.854v53.579h-163.413c-3.123-122.424-37.272-200.586-111.124-222.147
				c-12.54,0-100.268,0-100.268,0c-99.921,3.866-153.352,114.444-150.427,222.147l-10.309-4.659v-218.578
				c0.941-36.479,2.577-65.97,5.303-78.807c0-0.198,0.05-0.396,0.099-0.595c0.05-0.198,0.099-0.446,0.149-0.645
				c10.756-46.59,74.247-87.084,80.096-88.373c5.948-1.289,109.487,6.294,109.487,6.294s-123.365,2.478-130.75,52.142
				c-7.385,49.614,316.072,60.022,316.072,60.022s8.822,185.718,43.716,204.899
				C2467.441,2593.315,2543.919,2588.854,2543.919,2588.854z"/>
		</g>
		<g>
			<path style="fill:#660107;" d="M2018.659,2654.823c-3.901,0-7.4-1.81-9.677-4.66c-6.958,0.39-12.997-5.333-12.997-12.375V2378.99
				c0-0.224,0.007-0.444,0.02-0.668c2.73-50.647,18.24-88.968,46.101-113.893c33.292-29.791,72.342-29.264,77.132-29.074h344.468
				c36.078-1.801,64.071,6.51,83.251,24.721c17.772,16.879,26.782,41.01,26.782,71.723v310.635c0,6.842-5.548,12.39-12.392,12.39
				h-180.86c-6.719,0-12.216-5.353-12.387-12.073c-3.099-121.496-35.993-190.237-100.552-210.073h-98.454
				c-93.086,3.611-140.722,110.594-138.041,209.419c0.185,6.841-5.209,12.536-12.051,12.721
				C2018.888,2654.823,2018.774,2654.823,2018.659,2654.823z M2392.457,2630.043h156.498v-298.245
				c0-23.652-6.412-41.736-19.063-53.75c-14.117-13.405-36.059-19.436-65.232-17.928c-0.212,0.01-0.427,0.015-0.639,0.015h-345.056
				c-0.237,0-0.471-0.005-0.708-0.02c-3.643-0.151-90.744-2.913-97.487,119.212v160.095
				c22.974-71.376,72.823-128.615,147.846-131.514l100.747-0.01c1.176,0,2.345,0.166,3.472,0.493
				C2346.758,2429.974,2386.972,2504.521,2392.457,2630.043z"/>
		</g>
		<g>
			<path style="fill:#660107;" d="M2008.377,2654.823h-49.664c-6.844,0-12.392-5.548-12.392-12.39c0-6.841,5.548-12.39,12.392-12.39
				h49.664c6.844,0,12.392,5.548,12.392,12.39C2020.769,2649.274,2015.221,2654.823,2008.377,2654.823z"/>
		</g>
		<g>
			<path style="fill:#660107;" d="M1495.189,2502.462H978.232c-6.844,0-12.392-5.548-12.392-12.39c0-6.842,5.548-12.39,12.392-12.39
				h516.957c6.844,0,12.392,5.548,12.392,12.39C1507.582,2496.914,1502.033,2502.462,1495.189,2502.462z"/>
		</g>
		<g>
			<path style="fill:#660107;" d="M685.357,2502.462H432.926c-6.844,0-12.392-5.548-12.392-12.39v-182.844
				c0-6.841,5.548-12.39,12.392-12.39h41.339c6.844,0,12.392,5.548,12.392,12.39c0,6.842-5.548,12.39-12.392,12.39h-28.947v158.065
				h240.039c6.844,0,12.392,5.548,12.392,12.39C697.749,2496.914,692.201,2502.462,685.357,2502.462z"/>
		</g>
		<g>
			<path style="fill:#660107;" d="M1877.132,2654.823c-6.844,0-12.392-5.548-12.392-12.39V1540.668
				c0-15.523-12.651-28.151-28.202-28.151h-300.804c-15.522,0-28.151,12.629-28.151,28.151v1101.765
				c0,6.842-5.548,12.39-12.392,12.39s-12.392-5.548-12.392-12.39V1540.668c0-29.188,23.747-52.936,52.935-52.936h300.804
				c29.217,0,52.987,23.747,52.987,52.936v1101.765C1889.524,2649.274,1883.976,2654.823,1877.132,2654.823z"/>
		</g>
		<g>
			<g>
				<path style="fill:#33D7FC;" d="M783.569,1567.929v435.521c0,37.471-30.383,67.854-67.804,67.854H604.692
					c-1.091,0-2.181-0.05-3.271-0.099c-18.884-0.892-35.736-9.467-47.482-22.75c-10.656-11.945-17.1-27.707-17.1-45.005v-435.521
					c0-37.471,30.383-67.804,67.854-67.804h111.073c29.293,0,54.323,18.587,63.74,44.657
					C782.132,1552.019,783.569,1559.8,783.569,1567.929z"/>
			</g>
			<defs>
				<filter id="Adobe_OpacityMaskFilter" filterUnits="userSpaceOnUse" x="536.839" y="1544.782" width="246.731" height="429.573">
					<feFlood  style="flood-color:white;flood-opacity:1" result="back"/>
					<feBlend  in="SourceGraphic" in2="back" mode="normal"/>
				</filter>
			</defs>
			<mask maskUnits="userSpaceOnUse" x="536.839" y="1544.782" width="246.731" height="429.573" id="SVGID_1_">
				<g style="filter:url(#Adobe_OpacityMaskFilter);">
					<defs>
						
							<filter id="Adobe_OpacityMaskFilter_00000168117121115502976890000003707383806993268904_" filterUnits="userSpaceOnUse" x="536.839" y="1544.782" width="246.731" height="429.573">
							<feFlood  style="flood-color:white;flood-opacity:1" result="back"/>
							<feBlend  in="SourceGraphic" in2="back" mode="normal"/>
						</filter>
					</defs>
					<mask maskUnits="userSpaceOnUse" x="536.839" y="1544.782" width="246.731" height="429.573" id="SVGID_1_">
						<g style="filter:url(#Adobe_OpacityMaskFilter_00000168117121115502976890000003707383806993268904_);">
						</g>
					</mask>
					
						<linearGradient id="SVGID_00000170250646022482265610000014537933621228505270_" gradientUnits="userSpaceOnUse" x1="757.2184" y1="1619.8234" x2="532.208" y2="1938.712">
						<stop  offset="0" style="stop-color:#FFFFFF"/>
						<stop  offset="1" style="stop-color:#000000"/>
					</linearGradient>
					<path style="mask:url(#SVGID_1_);fill:url(#SVGID_00000170250646022482265610000014537933621228505270_);" d="
						M783.569,1567.929v131.494l-246.731,274.933v-159.151l242.667-270.423C782.132,1552.019,783.569,1559.8,783.569,1567.929z"/>
				</g>
			</mask>
			
				<linearGradient id="SVGID_00000144302821825437787050000003964290610602125473_" gradientUnits="userSpaceOnUse" x1="757.2184" y1="1619.8234" x2="532.208" y2="1938.712">
				<stop  offset="0" style="stop-color:#FFFFFF"/>
				<stop  offset="1" style="stop-color:#FFFFFF"/>
			</linearGradient>
			<path style="opacity:0.69;fill:url(#SVGID_00000144302821825437787050000003964290610602125473_);" d="M783.569,1567.929v131.494
				l-246.731,274.933v-159.151l242.667-270.423C782.132,1552.019,783.569,1559.8,783.569,1567.929z"/>
			<defs>
				
					<filter id="Adobe_OpacityMaskFilter_00000029039949652888432570000007099439859890188443_" filterUnits="userSpaceOnUse" x="553.938" y="1792.554" width="229.631" height="278.65">
					<feFlood  style="flood-color:white;flood-opacity:1" result="back"/>
					<feBlend  in="SourceGraphic" in2="back" mode="normal"/>
				</filter>
			</defs>
			
				<mask maskUnits="userSpaceOnUse" x="553.938" y="1792.554" width="229.631" height="278.65" id="SVGID_00000120555148250318401570000009428130748124162455_">
				<g style="filter:url(#Adobe_OpacityMaskFilter_00000029039949652888432570000007099439859890188443_);">
					<defs>
						
							<filter id="Adobe_OpacityMaskFilter_00000114061723132033090130000007447618361416993433_" filterUnits="userSpaceOnUse" x="553.938" y="1792.554" width="229.631" height="278.65">
							<feFlood  style="flood-color:white;flood-opacity:1" result="back"/>
							<feBlend  in="SourceGraphic" in2="back" mode="normal"/>
						</filter>
					</defs>
					
						<mask maskUnits="userSpaceOnUse" x="553.938" y="1792.554" width="229.631" height="278.65" id="SVGID_00000120555148250318401570000009428130748124162455_">
						<g style="filter:url(#Adobe_OpacityMaskFilter_00000114061723132033090130000007447618361416993433_);">
						</g>
					</mask>
					
						<linearGradient id="SVGID_00000003787626920390015180000013834438785477660060_" gradientUnits="userSpaceOnUse" x1="755.1157" y1="1835.9531" x2="597.7585" y2="2058.9624">
						<stop  offset="0" style="stop-color:#FFFFFF"/>
						<stop  offset="1" style="stop-color:#000000"/>
					</linearGradient>
					
						<path style="mask:url(#SVGID_00000120555148250318401570000009428130748124162455_);fill:url(#SVGID_00000003787626920390015180000013834438785477660060_);" d="
						M783.569,1792.554v75.685l-182.149,202.965c-18.884-0.892-35.736-9.467-47.482-22.75L783.569,1792.554z"/>
				</g>
			</mask>
			
				<linearGradient id="SVGID_00000050621537931365438840000013517808481124860825_" gradientUnits="userSpaceOnUse" x1="755.1157" y1="1835.9531" x2="597.7585" y2="2058.9624">
				<stop  offset="0" style="stop-color:#FFFFFF"/>
				<stop  offset="1" style="stop-color:#FFFFFF"/>
			</linearGradient>
			<path style="opacity:0.69;fill:url(#SVGID_00000050621537931365438840000013517808481124860825_);" d="M783.569,1792.554v75.685
				l-182.149,202.965c-18.884-0.892-35.736-9.467-47.482-22.75L783.569,1792.554z"/>
			<g>
				<path style="fill:#8E7575;" d="M783.569,1567.929v68.597H536.839v-68.597c0-37.471,30.383-67.804,67.854-67.804h111.073
					C753.186,1500.125,783.569,1530.458,783.569,1567.929z"/>
			</g>
			<g>
				<path style="fill:#660107;" d="M715.758,2083.668h-111.09c-44.22,0-80.199-35.973-80.199-80.194v-435.566
					c0-44.22,35.978-80.198,80.199-80.198h111.09c44.22,0,80.199,35.978,80.199,80.198v435.566
					C795.957,2047.695,759.978,2083.668,715.758,2083.668z M604.668,1512.495c-30.557,0-55.414,24.857-55.414,55.414v435.566
					c0,30.557,24.857,55.414,55.414,55.414h111.09c30.557,0,55.414-24.857,55.414-55.414v-435.566
					c0-30.557-24.857-55.414-55.414-55.414H604.668z"/>
			</g>
			<g>
				<path style="fill:#660107;" d="M783.564,1648.9H536.862c-6.844,0-12.392-5.548-12.392-12.392
					c0-6.844,5.548-12.392,12.392-12.392h246.703c6.844,0,12.392,5.548,12.392,12.392
					C795.957,1643.352,790.408,1648.9,783.564,1648.9z"/>
			</g>
		</g>
		<g>
			<g>
				<path style="fill:#33D7FC;" d="M1094.227,1567.929v435.521c0,37.471-30.383,67.854-67.804,67.854H915.349
					c-1.091,0-2.181-0.05-3.271-0.099c-18.884-0.892-35.736-9.467-47.482-22.75c-10.656-11.945-17.1-27.707-17.1-45.005v-435.521
					c0-37.471,30.383-67.804,67.854-67.804h111.073c29.293,0,54.322,18.587,63.74,44.657
					C1092.789,1552.019,1094.227,1559.8,1094.227,1567.929z"/>
			</g>
			<defs>
				
					<filter id="Adobe_OpacityMaskFilter_00000010301518116440368980000010137345903396608682_" filterUnits="userSpaceOnUse" x="847.496" y="1544.782" width="246.731" height="429.573">
					<feFlood  style="flood-color:white;flood-opacity:1" result="back"/>
					<feBlend  in="SourceGraphic" in2="back" mode="normal"/>
				</filter>
			</defs>
			
				<mask maskUnits="userSpaceOnUse" x="847.496" y="1544.782" width="246.731" height="429.573" id="SVGID_00000050626309575576329110000005178098637326014080_">
				<g style="filter:url(#Adobe_OpacityMaskFilter_00000010301518116440368980000010137345903396608682_);">
					<defs>
						
							<filter id="Adobe_OpacityMaskFilter_00000163056335127898403220000017279832867856825223_" filterUnits="userSpaceOnUse" x="847.496" y="1544.782" width="246.731" height="429.573">
							<feFlood  style="flood-color:white;flood-opacity:1" result="back"/>
							<feBlend  in="SourceGraphic" in2="back" mode="normal"/>
						</filter>
					</defs>
					
						<mask maskUnits="userSpaceOnUse" x="847.496" y="1544.782" width="246.731" height="429.573" id="SVGID_00000050626309575576329110000005178098637326014080_">
						<g style="filter:url(#Adobe_OpacityMaskFilter_00000163056335127898403220000017279832867856825223_);">
						</g>
					</mask>
					
						<linearGradient id="SVGID_00000163779045154097336860000003175889155849415306_" gradientUnits="userSpaceOnUse" x1="1067.8757" y1="1619.8234" x2="842.8654" y2="1938.712">
						<stop  offset="0" style="stop-color:#FFFFFF"/>
						<stop  offset="1" style="stop-color:#000000"/>
					</linearGradient>
					
						<path style="mask:url(#SVGID_00000050626309575576329110000005178098637326014080_);fill:url(#SVGID_00000163779045154097336860000003175889155849415306_);" d="
						M1094.227,1567.929v131.494l-246.731,274.933v-159.151l242.667-270.423C1092.789,1552.019,1094.227,1559.8,1094.227,1567.929z"
						/>
				</g>
			</mask>
			
				<linearGradient id="SVGID_00000003072501738570866500000012387394535221472440_" gradientUnits="userSpaceOnUse" x1="1067.8757" y1="1619.8234" x2="842.8654" y2="1938.712">
				<stop  offset="0" style="stop-color:#FFFFFF"/>
				<stop  offset="1" style="stop-color:#FFFFFF"/>
			</linearGradient>
			<path style="opacity:0.69;fill:url(#SVGID_00000003072501738570866500000012387394535221472440_);" d="M1094.227,1567.929
				v131.494l-246.731,274.933v-159.151l242.667-270.423C1092.789,1552.019,1094.227,1559.8,1094.227,1567.929z"/>
			<defs>
				
					<filter id="Adobe_OpacityMaskFilter_00000113330220473641649060000006317888310615001752_" filterUnits="userSpaceOnUse" x="864.596" y="1792.554" width="229.631" height="278.65">
					<feFlood  style="flood-color:white;flood-opacity:1" result="back"/>
					<feBlend  in="SourceGraphic" in2="back" mode="normal"/>
				</filter>
			</defs>
			
				<mask maskUnits="userSpaceOnUse" x="864.596" y="1792.554" width="229.631" height="278.65" id="SVGID_00000025442471160811668720000011520144572008362420_">
				<g style="filter:url(#Adobe_OpacityMaskFilter_00000113330220473641649060000006317888310615001752_);">
					<defs>
						
							<filter id="Adobe_OpacityMaskFilter_00000004508161920444630540000018097601434970410673_" filterUnits="userSpaceOnUse" x="864.596" y="1792.554" width="229.631" height="278.65">
							<feFlood  style="flood-color:white;flood-opacity:1" result="back"/>
							<feBlend  in="SourceGraphic" in2="back" mode="normal"/>
						</filter>
					</defs>
					
						<mask maskUnits="userSpaceOnUse" x="864.596" y="1792.554" width="229.631" height="278.65" id="SVGID_00000025442471160811668720000011520144572008362420_">
						<g style="filter:url(#Adobe_OpacityMaskFilter_00000004508161920444630540000018097601434970410673_);">
						</g>
					</mask>
					
						<linearGradient id="SVGID_00000163061301244437567680000006926820311971821500_" gradientUnits="userSpaceOnUse" x1="1065.7729" y1="1835.9531" x2="908.4159" y2="2058.9624">
						<stop  offset="0" style="stop-color:#FFFFFF"/>
						<stop  offset="1" style="stop-color:#000000"/>
					</linearGradient>
					
						<path style="mask:url(#SVGID_00000025442471160811668720000011520144572008362420_);fill:url(#SVGID_00000163061301244437567680000006926820311971821500_);" d="
						M1094.227,1792.554v75.685l-182.149,202.965c-18.884-0.892-35.736-9.467-47.482-22.75L1094.227,1792.554z"/>
				</g>
			</mask>
			
				<linearGradient id="SVGID_00000013157873520676406350000003460677786617291936_" gradientUnits="userSpaceOnUse" x1="1065.7729" y1="1835.9531" x2="908.4159" y2="2058.9624">
				<stop  offset="0" style="stop-color:#FFFFFF"/>
				<stop  offset="1" style="stop-color:#FFFFFF"/>
			</linearGradient>
			<path style="opacity:0.69;fill:url(#SVGID_00000013157873520676406350000003460677786617291936_);" d="M1094.227,1792.554v75.685
				l-182.149,202.965c-18.884-0.892-35.736-9.467-47.482-22.75L1094.227,1792.554z"/>
			<g>
				<path style="fill:#8E7575;" d="M1094.227,1567.929v68.597H847.496v-68.597c0-37.471,30.383-67.804,67.854-67.804h111.073
					C1063.844,1500.125,1094.227,1530.458,1094.227,1567.929z"/>
			</g>
			<g>
				<path style="fill:#660107;" d="M1026.415,2083.668h-111.09c-44.22,0-80.198-35.973-80.198-80.194v-435.566
					c0-44.22,35.978-80.198,80.198-80.198h111.09c44.22,0,80.199,35.978,80.199,80.198v435.566
					C1106.613,2047.695,1070.635,2083.668,1026.415,2083.668z M915.325,1512.495c-30.557,0-55.414,24.857-55.414,55.414v435.566
					c0,30.557,24.857,55.414,55.414,55.414h111.09c30.557,0,55.414-24.857,55.414-55.414v-435.566
					c0-30.557-24.857-55.414-55.414-55.414H915.325z"/>
			</g>
			<g>
				<path style="fill:#660107;" d="M1094.221,1648.9H847.518c-6.844,0-12.392-5.548-12.392-12.392
					c0-6.844,5.548-12.392,12.392-12.392h246.703c6.844,0,12.392,5.548,12.392,12.392
					C1106.613,1643.352,1101.065,1648.9,1094.221,1648.9z"/>
			</g>
		</g>
		<g>
			<g>
				<path style="fill:#33D7FC;" d="M1404.884,1567.929v435.521c0,37.471-30.383,67.854-67.804,67.854h-111.073
					c-1.09,0-2.181-0.05-3.271-0.099c-18.884-0.892-35.736-9.467-47.482-22.75c-10.656-11.945-17.1-27.707-17.1-45.005v-435.521
					c0-37.471,30.383-67.804,67.854-67.804h111.073c29.293,0,54.323,18.587,63.74,44.657
					C1403.447,1552.019,1404.884,1559.8,1404.884,1567.929z"/>
			</g>
			<defs>
				
					<filter id="Adobe_OpacityMaskFilter_00000145774522574045288150000017950583047308987303_" filterUnits="userSpaceOnUse" x="1158.153" y="1544.782" width="246.731" height="429.573">
					<feFlood  style="flood-color:white;flood-opacity:1" result="back"/>
					<feBlend  in="SourceGraphic" in2="back" mode="normal"/>
				</filter>
			</defs>
			
				<mask maskUnits="userSpaceOnUse" x="1158.153" y="1544.782" width="246.731" height="429.573" id="SVGID_00000101078685405415623750000014309592644518642367_">
				<g style="filter:url(#Adobe_OpacityMaskFilter_00000145774522574045288150000017950583047308987303_);">
					<defs>
						
							<filter id="Adobe_OpacityMaskFilter_00000183947847727632693230000004114404106670104976_" filterUnits="userSpaceOnUse" x="1158.153" y="1544.782" width="246.731" height="429.573">
							<feFlood  style="flood-color:white;flood-opacity:1" result="back"/>
							<feBlend  in="SourceGraphic" in2="back" mode="normal"/>
						</filter>
					</defs>
					
						<mask maskUnits="userSpaceOnUse" x="1158.153" y="1544.782" width="246.731" height="429.573" id="SVGID_00000101078685405415623750000014309592644518642367_">
						<g style="filter:url(#Adobe_OpacityMaskFilter_00000183947847727632693230000004114404106670104976_);">
						</g>
					</mask>
					
						<linearGradient id="SVGID_00000077282358332053409700000008477872296646336692_" gradientUnits="userSpaceOnUse" x1="1378.5331" y1="1619.8234" x2="1153.5227" y2="1938.712">
						<stop  offset="0" style="stop-color:#FFFFFF"/>
						<stop  offset="1" style="stop-color:#000000"/>
					</linearGradient>
					
						<path style="mask:url(#SVGID_00000101078685405415623750000014309592644518642367_);fill:url(#SVGID_00000077282358332053409700000008477872296646336692_);" d="
						M1404.884,1567.929v131.494l-246.731,274.933v-159.151l242.667-270.423C1403.447,1552.019,1404.884,1559.8,1404.884,1567.929z"
						/>
				</g>
			</mask>
			
				<linearGradient id="SVGID_00000153704773801611104300000003395967784088080547_" gradientUnits="userSpaceOnUse" x1="1378.5331" y1="1619.8234" x2="1153.5227" y2="1938.712">
				<stop  offset="0" style="stop-color:#FFFFFF"/>
				<stop  offset="1" style="stop-color:#FFFFFF"/>
			</linearGradient>
			<path style="opacity:0.69;fill:url(#SVGID_00000153704773801611104300000003395967784088080547_);" d="M1404.884,1567.929
				v131.494l-246.731,274.933v-159.151l242.667-270.423C1403.447,1552.019,1404.884,1559.8,1404.884,1567.929z"/>
			<defs>
				
					<filter id="Adobe_OpacityMaskFilter_00000067213112562780285170000010957254372505542316_" filterUnits="userSpaceOnUse" x="1175.253" y="1792.554" width="229.631" height="278.65">
					<feFlood  style="flood-color:white;flood-opacity:1" result="back"/>
					<feBlend  in="SourceGraphic" in2="back" mode="normal"/>
				</filter>
			</defs>
			
				<mask maskUnits="userSpaceOnUse" x="1175.253" y="1792.554" width="229.631" height="278.65" id="SVGID_00000057868902289319010980000010544069009086745480_">
				<g style="filter:url(#Adobe_OpacityMaskFilter_00000067213112562780285170000010957254372505542316_);">
					<defs>
						
							<filter id="Adobe_OpacityMaskFilter_00000148638919871138366420000002302229678351129006_" filterUnits="userSpaceOnUse" x="1175.253" y="1792.554" width="229.631" height="278.65">
							<feFlood  style="flood-color:white;flood-opacity:1" result="back"/>
							<feBlend  in="SourceGraphic" in2="back" mode="normal"/>
						</filter>
					</defs>
					
						<mask maskUnits="userSpaceOnUse" x="1175.253" y="1792.554" width="229.631" height="278.65" id="SVGID_00000057868902289319010980000010544069009086745480_">
						<g style="filter:url(#Adobe_OpacityMaskFilter_00000148638919871138366420000002302229678351129006_);">
						</g>
					</mask>
					
						<linearGradient id="SVGID_00000055674851697246993480000003538013174135408521_" gradientUnits="userSpaceOnUse" x1="1376.4304" y1="1835.9531" x2="1219.0732" y2="2058.9624">
						<stop  offset="0" style="stop-color:#FFFFFF"/>
						<stop  offset="1" style="stop-color:#000000"/>
					</linearGradient>
					
						<path style="mask:url(#SVGID_00000057868902289319010980000010544069009086745480_);fill:url(#SVGID_00000055674851697246993480000003538013174135408521_);" d="
						M1404.884,1792.554v75.685l-182.149,202.965c-18.884-0.892-35.736-9.467-47.482-22.75L1404.884,1792.554z"/>
				</g>
			</mask>
			
				<linearGradient id="SVGID_00000041282279932932918710000007170375883082843264_" gradientUnits="userSpaceOnUse" x1="1376.4304" y1="1835.9531" x2="1219.0732" y2="2058.9624">
				<stop  offset="0" style="stop-color:#FFFFFF"/>
				<stop  offset="1" style="stop-color:#FFFFFF"/>
			</linearGradient>
			<path style="opacity:0.69;fill:url(#SVGID_00000041282279932932918710000007170375883082843264_);" d="M1404.884,1792.554v75.685
				l-182.149,202.965c-18.884-0.892-35.736-9.467-47.482-22.75L1404.884,1792.554z"/>
			<g>
				<path style="fill:#8E7575;" d="M1404.884,1567.929v68.597h-246.731v-68.597c0-37.471,30.383-67.804,67.854-67.804h111.073
					C1374.501,1500.125,1404.884,1530.458,1404.884,1567.929z"/>
			</g>
			<g>
				<path style="fill:#660107;" d="M1337.071,2083.668h-111.09c-44.22,0-80.198-35.973-80.198-80.194v-435.566
					c0-44.22,35.978-80.198,80.198-80.198h111.09c44.223,0,80.201,35.978,80.201,80.198v435.566
					C1417.272,2047.695,1381.294,2083.668,1337.071,2083.668z M1225.981,1512.495c-30.557,0-55.414,24.857-55.414,55.414v435.566
					c0,30.557,24.857,55.414,55.414,55.414h111.09c30.557,0,55.417-24.857,55.417-55.414v-435.566
					c0-30.557-24.86-55.414-55.417-55.414H1225.981z"/>
			</g>
			<g>
				<path style="fill:#660107;" d="M1404.88,1648.9h-246.705c-6.844,0-12.392-5.548-12.392-12.392
					c0-6.844,5.548-12.392,12.392-12.392h246.705c6.844,0,12.392,5.548,12.392,12.392
					C1417.272,1643.352,1411.724,1648.9,1404.88,1648.9z"/>
			</g>
		</g>
		<g>
			<path style="fill:#660107;" d="M1955.271,1372.404H474.24c-6.844,0-12.392-5.548-12.392-12.392
				c0-6.844,5.548-12.392,12.392-12.392h1481.031c6.844,0,12.392,5.548,12.392,12.392
				C1967.663,1366.856,1962.115,1372.404,1955.271,1372.404z"/>
		</g>
		<g>
			<path style="fill:#660107;" d="M1961.764,1266.536H482.54c-6.844,0-12.392-5.548-12.392-12.392
				c0-6.844,5.548-12.392,12.392-12.392h1479.223c6.844,0,12.392,5.548,12.392,12.392
				C1974.156,1260.988,1968.607,1266.536,1961.764,1266.536z"/>
		</g>
		<g>
			<path style="fill:#660107;" d="M1535.982,2654.847c-6.844,0-12.392-5.548-12.392-12.39V1500.102
				c0-6.844,5.548-12.392,12.392-12.392c6.844,0,12.392,5.548,12.392,12.392v1142.355
				C1548.374,2649.299,1542.825,2654.847,1535.982,2654.847z"/>
		</g>
		<g>
			<g>
				<path style="fill:#33D7FC;" d="M1710.495,1566.293v490.438c0,8.029-6.542,14.572-14.572,14.572h-106.563
					c-4.56,0-8.674-2.131-11.301-5.452c-2.032-2.528-3.222-5.65-3.222-9.12v-490.438c0-8.079,6.493-14.572,14.523-14.572h106.563
					C1703.953,1551.721,1710.495,1558.214,1710.495,1566.293z"/>
			</g>
			<defs>
				
					<filter id="Adobe_OpacityMaskFilter_00000163782530838391895110000002551581141083441043_" filterUnits="userSpaceOnUse" x="1574.838" y="1609.216" width="135.657" height="310.322">
					<feFlood  style="flood-color:white;flood-opacity:1" result="back"/>
					<feBlend  in="SourceGraphic" in2="back" mode="normal"/>
				</filter>
			</defs>
			
				<mask maskUnits="userSpaceOnUse" x="1574.838" y="1609.216" width="135.657" height="310.322" id="SVGID_00000016064625623383024120000003636438636309091980_">
				<g style="filter:url(#Adobe_OpacityMaskFilter_00000163782530838391895110000002551581141083441043_);">
					<defs>
						
							<filter id="Adobe_OpacityMaskFilter_00000156582450979598332120000003829282043663133603_" filterUnits="userSpaceOnUse" x="1574.838" y="1609.216" width="135.657" height="310.322">
							<feFlood  style="flood-color:white;flood-opacity:1" result="back"/>
							<feBlend  in="SourceGraphic" in2="back" mode="normal"/>
						</filter>
					</defs>
					
						<mask maskUnits="userSpaceOnUse" x="1574.838" y="1609.216" width="135.657" height="310.322" id="SVGID_00000016064625623383024120000003636438636309091980_">
						<g style="filter:url(#Adobe_OpacityMaskFilter_00000156582450979598332120000003829282043663133603_);">
						</g>
					</mask>
					
						<linearGradient id="SVGID_00000150067711077877857140000013824832797559869317_" gradientUnits="userSpaceOnUse" x1="1709.407" y1="1669.7914" x2="1557.3369" y2="1885.3077">
						<stop  offset="0" style="stop-color:#FFFFFF"/>
						<stop  offset="1" style="stop-color:#000000"/>
					</linearGradient>
					
						<polygon style="mask:url(#SVGID_00000016064625623383024120000003636438636309091980_);fill:url(#SVGID_00000150067711077877857140000013824832797559869317_);" points="
						1710.495,1609.216 1710.495,1768.367 1574.838,1919.538 1574.838,1760.387 					"/>
				</g>
			</mask>
			
				<linearGradient id="SVGID_00000139257511521137299920000000549152857534786717_" gradientUnits="userSpaceOnUse" x1="1709.407" y1="1669.7914" x2="1557.3369" y2="1885.3077">
				<stop  offset="0" style="stop-color:#FFFFFF"/>
				<stop  offset="1" style="stop-color:#FFFFFF"/>
			</linearGradient>
			<polygon style="opacity:0.69;fill:url(#SVGID_00000139257511521137299920000000549152857534786717_);" points="
				1710.495,1609.216 1710.495,1768.367 1574.838,1919.538 1574.838,1760.387 			"/>
			<defs>
				
					<filter id="Adobe_OpacityMaskFilter_00000096761988058459702250000007880625053349297081_" filterUnits="userSpaceOnUse" x="1574.838" y="1842.564" width="135.657" height="223.287">
					<feFlood  style="flood-color:white;flood-opacity:1" result="back"/>
					<feBlend  in="SourceGraphic" in2="back" mode="normal"/>
				</filter>
			</defs>
			
				<mask maskUnits="userSpaceOnUse" x="1574.838" y="1842.564" width="135.657" height="223.287" id="SVGID_00000032640991271293252060000005535623752783411874_">
				<g style="filter:url(#Adobe_OpacityMaskFilter_00000096761988058459702250000007880625053349297081_);">
					<defs>
						
							<filter id="Adobe_OpacityMaskFilter_00000162334674179653253100000008565239543468753333_" filterUnits="userSpaceOnUse" x="1574.838" y="1842.564" width="135.657" height="223.287">
							<feFlood  style="flood-color:white;flood-opacity:1" result="back"/>
							<feBlend  in="SourceGraphic" in2="back" mode="normal"/>
						</filter>
					</defs>
					
						<mask maskUnits="userSpaceOnUse" x="1574.838" y="1842.564" width="135.657" height="223.287" id="SVGID_00000032640991271293252060000005535623752783411874_">
						<g style="filter:url(#Adobe_OpacityMaskFilter_00000162334674179653253100000008565239543468753333_);">
						</g>
					</mask>
					
						<linearGradient id="SVGID_00000030454158275709427590000009666563885412929931_" gradientUnits="userSpaceOnUse" x1="1696.1154" y1="1880.2688" x2="1577.4926" y2="2048.3831">
						<stop  offset="0" style="stop-color:#FFFFFF"/>
						<stop  offset="1" style="stop-color:#000000"/>
					</linearGradient>
					
						<path style="mask:url(#SVGID_00000032640991271293252060000005535623752783411874_);fill:url(#SVGID_00000030454158275709427590000009666563885412929931_);" d="
						M1710.495,1842.564v75.685l-132.436,147.603c-2.032-2.528-3.222-5.65-3.222-9.12v-62.947L1710.495,1842.564z"/>
				</g>
			</mask>
			
				<linearGradient id="SVGID_00000036214821050427651770000000527746018583557296_" gradientUnits="userSpaceOnUse" x1="1696.1154" y1="1880.2688" x2="1577.4926" y2="2048.3831">
				<stop  offset="0" style="stop-color:#FFFFFF"/>
				<stop  offset="1" style="stop-color:#FFFFFF"/>
			</linearGradient>
			<path style="opacity:0.69;fill:url(#SVGID_00000036214821050427651770000000527746018583557296_);" d="M1710.495,1842.564v75.685
				l-132.436,147.603c-2.032-2.528-3.222-5.65-3.222-9.12v-62.947L1710.495,1842.564z"/>
			<g>
				<path style="fill:#8E7575;" d="M1710.495,1566.293v108.794h-135.657v-108.794c0-8.079,6.493-14.572,14.523-14.572h106.563
					C1703.953,1551.721,1710.495,1558.214,1710.495,1566.293z"/>
			</g>
			<g>
				<path style="fill:#33D7FC;" d="M1877.131,1566.293v490.438c0,8.029-6.543,14.572-14.572,14.572h-96.799
					c-0.793,0-1.586-0.05-2.379-0.198c-6.89-1.14-12.144-7.137-12.144-14.374v-490.438c0-8.079,6.493-14.572,14.523-14.572h96.799
					C1870.588,1551.721,1877.131,1558.214,1877.131,1566.293z"/>
			</g>
			<defs>
				
					<filter id="Adobe_OpacityMaskFilter_00000082345929826662754740000002401220615891198106_" filterUnits="userSpaceOnUse" x="1751.237" y="1631.123" width="125.894" height="299.467">
					<feFlood  style="flood-color:white;flood-opacity:1" result="back"/>
					<feBlend  in="SourceGraphic" in2="back" mode="normal"/>
				</filter>
			</defs>
			
				<mask maskUnits="userSpaceOnUse" x="1751.237" y="1631.123" width="125.894" height="299.467" id="SVGID_00000019655868097190675630000003081439461816424092_">
				<g style="filter:url(#Adobe_OpacityMaskFilter_00000082345929826662754740000002401220615891198106_);">
					<defs>
						
							<filter id="Adobe_OpacityMaskFilter_00000118373920768328649330000007935189618699468970_" filterUnits="userSpaceOnUse" x="1751.237" y="1631.123" width="125.894" height="299.467">
							<feFlood  style="flood-color:white;flood-opacity:1" result="back"/>
							<feBlend  in="SourceGraphic" in2="back" mode="normal"/>
						</filter>
					</defs>
					
						<mask maskUnits="userSpaceOnUse" x="1751.237" y="1631.123" width="125.894" height="299.467" id="SVGID_00000019655868097190675630000003081439461816424092_">
						<g style="filter:url(#Adobe_OpacityMaskFilter_00000118373920768328649330000007935189618699468970_);">
						</g>
					</mask>
					
						<linearGradient id="SVGID_00000179612256391499623370000014881930994935607438_" gradientUnits="userSpaceOnUse" x1="1878.0079" y1="1690.4047" x2="1732.5831" y2="1896.5032">
						<stop  offset="0" style="stop-color:#FFFFFF"/>
						<stop  offset="1" style="stop-color:#000000"/>
					</linearGradient>
					
						<polygon style="mask:url(#SVGID_00000019655868097190675630000003081439461816424092_);fill:url(#SVGID_00000179612256391499623370000014881930994935607438_);" points="
						1877.131,1631.123 1877.131,1790.274 1751.237,1930.591 1751.237,1771.44 					"/>
				</g>
			</mask>
			
				<linearGradient id="SVGID_00000155831389956619442940000012156541686725702821_" gradientUnits="userSpaceOnUse" x1="1878.0079" y1="1690.4047" x2="1732.5831" y2="1896.5032">
				<stop  offset="0" style="stop-color:#FFFFFF"/>
				<stop  offset="1" style="stop-color:#FFFFFF"/>
			</linearGradient>
			<polygon style="opacity:0.69;fill:url(#SVGID_00000155831389956619442940000012156541686725702821_);" points="
				1877.131,1631.123 1877.131,1790.274 1751.237,1930.591 1751.237,1771.44 			"/>
			<defs>
				
					<filter id="Adobe_OpacityMaskFilter_00000095312910169318511170000017285309705747672245_" filterUnits="userSpaceOnUse" x="1751.237" y="1868.635" width="125.894" height="202.47">
					<feFlood  style="flood-color:white;flood-opacity:1" result="back"/>
					<feBlend  in="SourceGraphic" in2="back" mode="normal"/>
				</filter>
			</defs>
			
				<mask maskUnits="userSpaceOnUse" x="1751.237" y="1868.635" width="125.894" height="202.47" id="SVGID_00000129904187301660072180000005780386406688575927_">
				<g style="filter:url(#Adobe_OpacityMaskFilter_00000095312910169318511170000017285309705747672245_);">
					<defs>
						
							<filter id="Adobe_OpacityMaskFilter_00000071542474086899327020000011230121229461033138_" filterUnits="userSpaceOnUse" x="1751.237" y="1868.635" width="125.894" height="202.47">
							<feFlood  style="flood-color:white;flood-opacity:1" result="back"/>
							<feBlend  in="SourceGraphic" in2="back" mode="normal"/>
						</filter>
					</defs>
					
						<mask maskUnits="userSpaceOnUse" x="1751.237" y="1868.635" width="125.894" height="202.47" id="SVGID_00000129904187301660072180000005780386406688575927_">
						<g style="filter:url(#Adobe_OpacityMaskFilter_00000071542474086899327020000011230121229461033138_);">
						</g>
					</mask>
					
						<linearGradient id="SVGID_00000019674663498604715190000004243806429301816218_" gradientUnits="userSpaceOnUse" x1="1865.7363" y1="1903.5752" x2="1759.1884" y2="2054.5769">
						<stop  offset="0" style="stop-color:#FFFFFF"/>
						<stop  offset="1" style="stop-color:#000000"/>
					</linearGradient>
					
						<path style="mask:url(#SVGID_00000129904187301660072180000005780386406688575927_);fill:url(#SVGID_00000019674663498604715190000004243806429301816218_);" d="
						M1877.131,1868.635v75.685l-113.75,126.786c-6.89-1.14-12.144-7.137-12.144-14.374v-47.78L1877.131,1868.635z"/>
				</g>
			</mask>
			
				<linearGradient id="SVGID_00000070104977193856292110000015662943256080144801_" gradientUnits="userSpaceOnUse" x1="1865.7363" y1="1903.5752" x2="1759.1884" y2="2054.5769">
				<stop  offset="0" style="stop-color:#FFFFFF"/>
				<stop  offset="1" style="stop-color:#FFFFFF"/>
			</linearGradient>
			<path style="opacity:0.69;fill:url(#SVGID_00000070104977193856292110000015662943256080144801_);" d="M1877.131,1868.635v75.685
				l-113.75,126.786c-6.89-1.14-12.144-7.137-12.144-14.374v-47.78L1877.131,1868.635z"/>
			<g>
				<path style="fill:#8E7575;" d="M1877.131,1566.293v108.794h-125.894v-108.794c0-8.079,6.493-14.572,14.523-14.572h96.799
					C1870.588,1551.721,1877.131,1558.214,1877.131,1566.293z"/>
			</g>
			<g>
				<path style="fill:#660107;" d="M1695.918,2081.214h-106.542c-13.495,0-24.474-10.975-24.474-24.472v-490.465
					c0-13.495,10.979-24.474,24.474-24.474h106.542c13.497,0,24.477,10.979,24.477,24.474v490.465
					C1720.394,2070.239,1709.415,2081.214,1695.918,2081.214z M1589.376,1561.629c-2.564,0-4.648,2.084-4.648,4.648v490.465
					c0,2.562,2.084,4.65,4.648,4.65h106.542c2.564,0,4.65-2.089,4.65-4.65v-490.465c0-2.564-2.086-4.648-4.65-4.648H1589.376z"/>
			</g>
			<g>
				<path style="fill:#660107;" d="M1862.553,2081.214h-96.775c-13.495,0-24.474-10.975-24.474-24.472v-490.465
					c0-13.495,10.979-24.474,24.474-24.474h96.775c13.495,0,24.474,10.979,24.474,24.474v490.465
					C1887.028,2070.239,1876.048,2081.214,1862.553,2081.214z M1765.778,1561.629c-2.562,0-4.648,2.084-4.648,4.648v490.465
					c0,2.562,2.086,4.65,4.648,4.65h96.775c2.562,0,4.648-2.089,4.648-4.65v-490.465c0-2.564-2.086-4.648-4.648-4.648H1765.778z"/>
			</g>
			<g>
				<path style="fill:#660107;" d="M1710.496,1685.001h-135.657c-5.475,0-9.913-4.438-9.913-9.913s4.438-9.913,9.913-9.913h135.657
					c5.475,0,9.913,4.438,9.913,9.913S1715.971,1685.001,1710.496,1685.001z"/>
			</g>
			<g>
				<path style="fill:#660107;" d="M1877.132,1685.001h-125.895c-5.475,0-9.913-4.438-9.913-9.913s4.438-9.913,9.913-9.913h125.895
					c5.475,0,9.913,4.438,9.913,9.913S1882.607,1685.001,1877.132,1685.001z"/>
			</g>
		</g>
		<g>
			<g>
				<path style="fill:#33D7FC;" d="M1710.495,2129.582v453.932c0,8.03-6.542,14.572-14.572,14.572h-106.563
					c-4.56,0-8.674-2.131-11.301-5.452c-2.032-2.528-3.222-5.65-3.222-9.12v-453.932c0-8.079,6.493-14.572,14.523-14.572h106.563
					C1703.953,2115.01,1710.495,2121.503,1710.495,2129.582z"/>
			</g>
			<defs>
				
					<filter id="Adobe_OpacityMaskFilter_00000156570672417014917170000002341441916648162434_" filterUnits="userSpaceOnUse" x="1574.838" y="2151.86" width="135.657" height="310.322">
					<feFlood  style="flood-color:white;flood-opacity:1" result="back"/>
					<feBlend  in="SourceGraphic" in2="back" mode="normal"/>
				</filter>
			</defs>
			
				<mask maskUnits="userSpaceOnUse" x="1574.838" y="2151.86" width="135.657" height="310.322" id="SVGID_00000174589844653415859170000010064438562943782307_">
				<g style="filter:url(#Adobe_OpacityMaskFilter_00000156570672417014917170000002341441916648162434_);">
					<defs>
						
							<filter id="Adobe_OpacityMaskFilter_00000155831789526198288520000016291177816277721750_" filterUnits="userSpaceOnUse" x="1574.838" y="2151.86" width="135.657" height="310.322">
							<feFlood  style="flood-color:white;flood-opacity:1" result="back"/>
							<feBlend  in="SourceGraphic" in2="back" mode="normal"/>
						</filter>
					</defs>
					
						<mask maskUnits="userSpaceOnUse" x="1574.838" y="2151.86" width="135.657" height="310.322" id="SVGID_00000174589844653415859170000010064438562943782307_">
						<g style="filter:url(#Adobe_OpacityMaskFilter_00000155831789526198288520000016291177816277721750_);">
						</g>
					</mask>
					
						<linearGradient id="SVGID_00000089567683254462208550000015091084356018737586_" gradientUnits="userSpaceOnUse" x1="1709.407" y1="2212.4351" x2="1557.3369" y2="2427.9514">
						<stop  offset="0" style="stop-color:#FFFFFF"/>
						<stop  offset="1" style="stop-color:#000000"/>
					</linearGradient>
					
						<polygon style="mask:url(#SVGID_00000174589844653415859170000010064438562943782307_);fill:url(#SVGID_00000089567683254462208550000015091084356018737586_);" points="
						1710.495,2151.86 1710.495,2311.01 1574.838,2462.181 1574.838,2303.031 					"/>
				</g>
			</mask>
			
				<linearGradient id="SVGID_00000176009189486766900550000000724416506013786283_" gradientUnits="userSpaceOnUse" x1="1709.407" y1="2212.4351" x2="1557.3369" y2="2427.9514">
				<stop  offset="0" style="stop-color:#FFFFFF"/>
				<stop  offset="1" style="stop-color:#FFFFFF"/>
			</linearGradient>
			<polygon style="opacity:0.69;fill:url(#SVGID_00000176009189486766900550000000724416506013786283_);" points="1710.495,2151.86 
				1710.495,2311.01 1574.838,2462.181 1574.838,2303.031 			"/>
			<defs>
				
					<filter id="Adobe_OpacityMaskFilter_00000119834297421305326110000000139236197403917186_" filterUnits="userSpaceOnUse" x="1574.838" y="2367.512" width="135.657" height="223.287">
					<feFlood  style="flood-color:white;flood-opacity:1" result="back"/>
					<feBlend  in="SourceGraphic" in2="back" mode="normal"/>
				</filter>
			</defs>
			
				<mask maskUnits="userSpaceOnUse" x="1574.838" y="2367.512" width="135.657" height="223.287" id="SVGID_00000093152457096938644640000014288730975562057374_">
				<g style="filter:url(#Adobe_OpacityMaskFilter_00000119834297421305326110000000139236197403917186_);">
					<defs>
						
							<filter id="Adobe_OpacityMaskFilter_00000041977256673373628500000005142302678620720820_" filterUnits="userSpaceOnUse" x="1574.838" y="2367.512" width="135.657" height="223.287">
							<feFlood  style="flood-color:white;flood-opacity:1" result="back"/>
							<feBlend  in="SourceGraphic" in2="back" mode="normal"/>
						</filter>
					</defs>
					
						<mask maskUnits="userSpaceOnUse" x="1574.838" y="2367.512" width="135.657" height="223.287" id="SVGID_00000093152457096938644640000014288730975562057374_">
						<g style="filter:url(#Adobe_OpacityMaskFilter_00000041977256673373628500000005142302678620720820_);">
						</g>
					</mask>
					
						<linearGradient id="SVGID_00000028288305011627540130000018385159553590212503_" gradientUnits="userSpaceOnUse" x1="1696.1154" y1="2405.2166" x2="1577.4927" y2="2573.3308">
						<stop  offset="0" style="stop-color:#FFFFFF"/>
						<stop  offset="1" style="stop-color:#000000"/>
					</linearGradient>
					
						<path style="mask:url(#SVGID_00000093152457096938644640000014288730975562057374_);fill:url(#SVGID_00000028288305011627540130000018385159553590212503_);" d="
						M1710.495,2367.512v75.685L1578.06,2590.8c-2.032-2.528-3.222-5.65-3.222-9.12v-62.947L1710.495,2367.512z"/>
				</g>
			</mask>
			
				<linearGradient id="SVGID_00000120528685959574952560000013237290604202446515_" gradientUnits="userSpaceOnUse" x1="1696.1154" y1="2405.2166" x2="1577.4927" y2="2573.3308">
				<stop  offset="0" style="stop-color:#FFFFFF"/>
				<stop  offset="1" style="stop-color:#FFFFFF"/>
			</linearGradient>
			<path style="opacity:0.69;fill:url(#SVGID_00000120528685959574952560000013237290604202446515_);" d="M1710.495,2367.512v75.685
				L1578.06,2590.8c-2.032-2.528-3.222-5.65-3.222-9.12v-62.947L1710.495,2367.512z"/>
			<g>
				<path style="fill:#8E7575;" d="M1710.495,2129.582v108.794h-135.657v-108.794c0-8.079,6.493-14.572,14.523-14.572h106.563
					C1703.953,2115.01,1710.495,2121.503,1710.495,2129.582z"/>
			</g>
			<g>
				<path style="fill:#33D7FC;" d="M1877.131,2129.582v453.932c0,8.03-6.543,14.572-14.572,14.572h-96.799
					c-0.793,0-1.586-0.05-2.379-0.198c-6.89-1.14-12.144-7.137-12.144-14.374v-453.932c0-8.079,6.493-14.572,14.523-14.572h96.799
					C1870.588,2115.01,1877.131,2121.503,1877.131,2129.582z"/>
			</g>
			<defs>
				
					<filter id="Adobe_OpacityMaskFilter_00000182522932188515152860000004783506603507236736_" filterUnits="userSpaceOnUse" x="1751.237" y="2173.767" width="125.894" height="299.467">
					<feFlood  style="flood-color:white;flood-opacity:1" result="back"/>
					<feBlend  in="SourceGraphic" in2="back" mode="normal"/>
				</filter>
			</defs>
			
				<mask maskUnits="userSpaceOnUse" x="1751.237" y="2173.767" width="125.894" height="299.467" id="SVGID_00000029753140367901645140000005085679618821993129_">
				<g style="filter:url(#Adobe_OpacityMaskFilter_00000182522932188515152860000004783506603507236736_);">
					<defs>
						
							<filter id="Adobe_OpacityMaskFilter_00000126317607410071500410000014836650976402866073_" filterUnits="userSpaceOnUse" x="1751.237" y="2173.767" width="125.894" height="299.467">
							<feFlood  style="flood-color:white;flood-opacity:1" result="back"/>
							<feBlend  in="SourceGraphic" in2="back" mode="normal"/>
						</filter>
					</defs>
					
						<mask maskUnits="userSpaceOnUse" x="1751.237" y="2173.767" width="125.894" height="299.467" id="SVGID_00000029753140367901645140000005085679618821993129_">
						<g style="filter:url(#Adobe_OpacityMaskFilter_00000126317607410071500410000014836650976402866073_);">
						</g>
					</mask>
					
						<linearGradient id="SVGID_00000142175294637470078740000000226647348851284159_" gradientUnits="userSpaceOnUse" x1="1878.0079" y1="2233.0483" x2="1732.5833" y2="2439.1467">
						<stop  offset="0" style="stop-color:#FFFFFF"/>
						<stop  offset="1" style="stop-color:#000000"/>
					</linearGradient>
					
						<polygon style="mask:url(#SVGID_00000029753140367901645140000005085679618821993129_);fill:url(#SVGID_00000142175294637470078740000000226647348851284159_);" points="
						1877.131,2173.767 1877.131,2332.918 1751.237,2473.234 1751.237,2314.083 					"/>
				</g>
			</mask>
			
				<linearGradient id="SVGID_00000032630644273753602270000009780200895822000262_" gradientUnits="userSpaceOnUse" x1="1878.0079" y1="2233.0483" x2="1732.5833" y2="2439.1467">
				<stop  offset="0" style="stop-color:#FFFFFF"/>
				<stop  offset="1" style="stop-color:#FFFFFF"/>
			</linearGradient>
			<polygon style="opacity:0.69;fill:url(#SVGID_00000032630644273753602270000009780200895822000262_);" points="
				1877.131,2173.767 1877.131,2332.918 1751.237,2473.234 1751.237,2314.083 			"/>
			<defs>
				
					<filter id="Adobe_OpacityMaskFilter_00000061444672391688227110000009476219207830822292_" filterUnits="userSpaceOnUse" x="1751.237" y="2393.583" width="125.894" height="202.47">
					<feFlood  style="flood-color:white;flood-opacity:1" result="back"/>
					<feBlend  in="SourceGraphic" in2="back" mode="normal"/>
				</filter>
			</defs>
			
				<mask maskUnits="userSpaceOnUse" x="1751.237" y="2393.583" width="125.894" height="202.47" id="SVGID_00000065760862413520857000000017505937747065202826_">
				<g style="filter:url(#Adobe_OpacityMaskFilter_00000061444672391688227110000009476219207830822292_);">
					<defs>
						
							<filter id="Adobe_OpacityMaskFilter_00000030449247960257370050000013048770804499360166_" filterUnits="userSpaceOnUse" x="1751.237" y="2393.583" width="125.894" height="202.47">
							<feFlood  style="flood-color:white;flood-opacity:1" result="back"/>
							<feBlend  in="SourceGraphic" in2="back" mode="normal"/>
						</filter>
					</defs>
					
						<mask maskUnits="userSpaceOnUse" x="1751.237" y="2393.583" width="125.894" height="202.47" id="SVGID_00000065760862413520857000000017505937747065202826_">
						<g style="filter:url(#Adobe_OpacityMaskFilter_00000030449247960257370050000013048770804499360166_);">
						</g>
					</mask>
					
						<linearGradient id="SVGID_00000050665492983467167670000014769822507311695798_" gradientUnits="userSpaceOnUse" x1="1865.7362" y1="2428.5232" x2="1759.1884" y2="2579.5247">
						<stop  offset="0" style="stop-color:#FFFFFF"/>
						<stop  offset="1" style="stop-color:#000000"/>
					</linearGradient>
					
						<path style="mask:url(#SVGID_00000065760862413520857000000017505937747065202826_);fill:url(#SVGID_00000050665492983467167670000014769822507311695798_);" d="
						M1877.131,2393.583v75.685l-113.75,126.786c-6.89-1.14-12.144-7.137-12.144-14.374v-47.78L1877.131,2393.583z"/>
				</g>
			</mask>
			
				<linearGradient id="SVGID_00000170255339248122887250000016944701595302326418_" gradientUnits="userSpaceOnUse" x1="1865.7362" y1="2428.5232" x2="1759.1884" y2="2579.5247">
				<stop  offset="0" style="stop-color:#FFFFFF"/>
				<stop  offset="1" style="stop-color:#FFFFFF"/>
			</linearGradient>
			<path style="opacity:0.69;fill:url(#SVGID_00000170255339248122887250000016944701595302326418_);" d="M1877.131,2393.583v75.685
				l-113.75,126.786c-6.89-1.14-12.144-7.137-12.144-14.374v-47.78L1877.131,2393.583z"/>
			<g>
				<path style="fill:#8E7575;" d="M1877.131,2129.582v108.794h-125.894v-108.794c0-8.079,6.493-14.572,14.523-14.572h96.799
					C1870.588,2115.01,1877.131,2121.503,1877.131,2129.582z"/>
			</g>
			<g>
				<path style="fill:#660107;" d="M1695.918,2607.997h-106.542c-13.495,0-24.474-10.975-24.474-24.472v-453.958
					c0-13.497,10.979-24.472,24.474-24.472h106.542c13.497,0,24.477,10.975,24.477,24.472v453.958
					C1720.394,2597.022,1709.415,2607.997,1695.918,2607.997z M1589.376,2124.917c-2.562,0-4.648,2.089-4.648,4.65v453.958
					c0,2.562,2.086,4.65,4.648,4.65h106.542c2.564,0,4.65-2.089,4.65-4.65v-453.958c0-2.562-2.086-4.65-4.65-4.65H1589.376z"/>
			</g>
			
				<path style="fill:none;stroke:#660107;stroke-width:19.8257;stroke-linecap:round;stroke-linejoin:round;stroke-miterlimit:10;" d="
				M1862.553,2598.086h-96.773c-8.042,0-14.562-6.52-14.562-14.562v-453.958c0-8.042,6.52-14.562,14.562-14.562h96.773
				c8.042,0,14.562,6.52,14.562,14.562v453.958C1877.115,2591.566,1870.595,2598.086,1862.553,2598.086z"/>
			<g>
				<path style="fill:#660107;" d="M1710.496,2248.286h-135.657c-5.475,0-9.913-4.436-9.913-9.911c0-5.475,4.438-9.911,9.913-9.911
					h135.657c5.475,0,9.913,4.436,9.913,9.911C1720.409,2243.851,1715.971,2248.286,1710.496,2248.286z"/>
			</g>
			<g>
				<path style="fill:#660107;" d="M1877.132,2248.286h-125.895c-5.475,0-9.913-4.436-9.913-9.911c0-5.475,4.438-9.911,9.913-9.911
					h125.895c5.475,0,9.913,4.436,9.913,9.911C1887.045,2243.851,1882.607,2248.286,1877.132,2248.286z"/>
			</g>
		</g>
		<g>
			<path style="fill:#660107;" d="M2388.814,2650.914c-6.844,0-12.392-5.548-12.392-12.39V2378.99
				c-0.615-56.224,11.863-97.185,37.088-121.613c23.677-22.925,49.925-22.086,51.047-22.013c6.836,0.298,12.138,6.08,11.843,12.917
				c-0.295,6.793-5.907,12.136-12.797,11.848c-0.942,0.005-17.599-0.068-33.365,15.557c-19.521,19.339-29.562,55.014-29.034,103.168
				l0.002,259.67C2401.206,2645.365,2395.658,2650.914,2388.814,2650.914z"/>
		</g>
		<g>
			<path style="fill:#F9D230;" d="M3567.074,2331.813v310.619h-172.533v-263.434c-1.487-134.567,75.189-131.247,75.189-131.247
				C3535.056,2244.382,3567.074,2276.847,3567.074,2331.813z"/>
		</g>
		<g>
			<path style="fill:#660107;" d="M3567.074,2654.823h-172.533c-6.844,0-12.392-5.548-12.392-12.39V2379
				c-0.622-56.229,11.853-97.19,37.076-121.613c21.581-20.895,45.313-22.027,50.176-22.027c0.027,0,0.051,0,0.076,0
				c36.012-1.762,64.049,6.529,83.217,24.73c17.765,16.869,26.773,41,26.773,71.722v310.62
				C3579.466,2649.274,3573.918,2654.823,3567.074,2654.823z M3406.933,2630.043h147.749v-298.23
				c0-23.662-6.409-41.746-19.055-53.755c-14.112-13.405-36.064-19.431-65.259-17.928c-0.388,0.02-0.783,0.02-1.176,0.005
				c-0.566-0.02-17.379-0.161-33.238,15.556c-19.519,19.338-29.554,55.014-29.022,103.172L3406.933,2630.043z"/>
		</g>
		<g>
			<ellipse style="fill:#E1EDEF;" cx="2475.69" cy="2369.214" rx="49.283" ry="75.755"/>
		</g>
		<g>
			<path style="fill:#660107;" d="M2475.691,2457.359c-34.583,0-61.675-38.716-61.675-88.143c0-49.432,27.092-88.148,61.675-88.148
				s61.675,38.716,61.675,88.148C2537.366,2418.643,2510.273,2457.359,2475.691,2457.359z M2475.691,2305.848
				c-19.997,0-36.891,29.02-36.891,63.368c0,34.344,16.894,63.363,36.891,63.363c19.997,0,36.891-29.02,36.891-63.363
				C2512.582,2334.868,2495.688,2305.848,2475.691,2305.848z"/>
		</g>
		<g>
			<ellipse style="fill:#E1EDEF;" cx="3480.797" cy="2369.214" rx="49.283" ry="75.755"/>
		</g>
		<g>
			<path style="fill:#660107;" d="M3480.798,2457.359c-34.583,0-61.675-38.716-61.675-88.143c0-49.432,27.093-88.148,61.675-88.148
				c34.583,0,61.673,38.716,61.673,88.148C3542.471,2418.643,3515.381,2457.359,3480.798,2457.359z M3480.798,2305.848
				c-19.997,0-36.891,29.02-36.891,63.368c0,34.344,16.894,63.363,36.891,63.363c19.997,0,36.888-29.02,36.888-63.363
				C3517.686,2334.868,3500.795,2305.848,3480.798,2305.848z"/>
		</g>
		<g>
			<polygon style="fill:#F9D230;" points="2561.347,2642.433 3394.541,2642.433 3394.541,2317.083 3372.399,2205.964 
				2584.942,2205.964 2561.347,2331.8 			"/>
		</g>
		<g>
			<path style="fill:#FFA403;" d="M2564.297,2591.336c5.161,0,830.223,0,830.223,0v51.096h-833.172L2564.297,2591.336z"/>
		</g>
		<g>
			<path style="fill:#660107;" d="M3394.541,2654.823h-833.194c-6.844,0-12.392-5.548-12.392-12.39v-310.635
				c0-0.766,0.073-1.532,0.212-2.284l23.594-125.834c1.1-5.861,6.217-10.106,12.18-10.106h787.458
				c5.909,0,10.997,4.172,12.153,9.969l22.142,111.117c0.159,0.795,0.239,1.605,0.239,2.42v325.352
				C3406.933,2649.274,3401.385,2654.823,3394.541,2654.823z M2573.739,2630.043h808.41v-311.737l-19.914-99.952h-767.01
				l-21.486,114.596V2630.043z"/>
		</g>
		<g>
			<path style="fill:#660107;" d="M3394.519,2516.409h-833.172c-6.844,0-12.392-5.548-12.392-12.39
				c0-6.842,5.548-12.39,12.392-12.39h833.172c6.844,0,12.392,5.548,12.392,12.39
				C3406.911,2510.86,3401.363,2516.409,3394.519,2516.409z"/>
		</g>
		<g>
			<path style="fill:#8E7575;" d="M3301.371,2444.973h-640.485c-13.533-13.533-21.121-21.121-34.654-34.654v-118.58
				c13.533-13.533,21.121-21.121,34.654-34.654h641.96c12.957,12.958,20.222,20.222,33.179,33.179v120.055
				C3322.491,2423.852,3314.904,2431.44,3301.371,2444.973z"/>
		</g>
		<g>
			<path style="fill:#660107;" d="M3301.37,2457.364h-640.483c-3.287,0-6.439-1.303-8.762-3.63l-34.656-34.651
				c-2.323-2.328-3.63-5.475-3.63-8.764V2291.74c0-3.284,1.305-6.436,3.63-8.759l34.656-34.661c2.325-2.323,5.475-3.626,8.762-3.626
				h641.959c3.287,0,6.439,1.303,8.762,3.626l33.18,33.177c2.323,2.328,3.631,5.475,3.631,8.764v120.056
				c0,3.289-1.308,6.437-3.631,8.764l-34.656,34.651C3307.809,2456.061,3304.656,2457.364,3301.37,2457.364z M2666.02,2432.584
				h630.216l27.397-27.4v-109.789l-25.921-25.921H2666.02l-27.397,27.4v108.311L2666.02,2432.584z"/>
		</g>
		<g>
			<path style="fill:#660107;" d="M2995.874,2455.519c-6.844,0-12.392-5.548-12.392-12.39v-186.045
				c0-6.842,5.548-12.39,12.392-12.39c6.844,0,12.392,5.548,12.392,12.39v186.045
				C3008.266,2449.971,3002.718,2455.519,2995.874,2455.519z"/>
		</g>
		<g>
			<rect x="2823.833" y="2289.916" style="fill:#660107;" width="121.657" height="24.779"/>
		</g>
		<g>
			<rect x="2669.734" y="2289.916" style="fill:#660107;" width="120.183" height="24.779"/>
		</g>
		<g>
			<rect x="2823.833" y="2338.64" style="fill:#660107;" width="121.657" height="24.779"/>
		</g>
		<g>
			<rect x="2669.734" y="2338.64" style="fill:#660107;" width="120.183" height="24.779"/>
		</g>
		<g>
			<rect x="2823.833" y="2387.359" style="fill:#660107;" width="121.657" height="24.779"/>
		</g>
		<g>
			<rect x="2669.734" y="2387.359" style="fill:#660107;" width="120.183" height="24.779"/>
		</g>
		<g>
			<rect x="3186.225" y="2289.916" style="fill:#660107;" width="110.475" height="24.779"/>
		</g>
		<g>
			<rect x="3032.125" y="2289.916" style="fill:#660107;" width="120.183" height="24.779"/>
		</g>
		<g>
			<rect x="3186.225" y="2338.64" style="fill:#660107;" width="110.475" height="24.779"/>
		</g>
		<g>
			<rect x="3032.125" y="2338.64" style="fill:#660107;" width="120.183" height="24.779"/>
		</g>
		<g>
			<rect x="3186.225" y="2387.359" style="fill:#660107;" width="110.475" height="24.779"/>
		</g>
		<g>
			<rect x="3032.125" y="2387.359" style="fill:#660107;" width="120.183" height="24.779"/>
		</g>
		<g>
			<path style="fill:#660107;" d="M2067.364,2273.822c-6.844,0-12.392-5.548-12.392-12.39l-0.002-916.657
				c2.818-77.149,15.632-153.422,89.736-191.891c6.078-3.157,13.553-0.788,16.706,5.287c3.155,6.073,0.786,13.553-5.287,16.706
				c-59.34,30.808-73.45,90.38-76.38,170.352l0.012,916.203C2079.756,2268.274,2074.208,2273.822,2067.364,2273.822z"/>
		</g>
		<g>
			<path style="fill:#660107;" d="M3261.8,2137.741H2067.364c-6.844,0-12.392-5.548-12.392-12.39s5.548-12.39,12.392-12.39H3261.8
				c6.844,0,12.392,5.548,12.392,12.39S3268.644,2137.741,3261.8,2137.741z"/>
		</g>
		<g>
			<path style="fill:#660107;" d="M2584.929,2218.359c-2.123,0-4.272-0.546-6.236-1.693
				c-69.271-40.453-187.294-65.545-371.422-78.954c-6.824-0.498-11.956-6.436-11.458-13.258c0.495-6.827,6.417-11.906,13.258-11.462
				c188.041,13.702,309.461,39.843,382.118,82.272c5.909,3.45,7.903,11.043,4.453,16.952
				C2593.336,2216.158,2589.189,2218.359,2584.929,2218.359z"/>
		</g>
		<g>
			<path style="fill:#33D7FC;" d="M3186.222,1549.491v472.248c0,27.26-22.105,49.366-49.366,49.366h-937.063
				c-7.335,0-14.323-1.586-20.569-4.461c-17.001-7.831-28.797-24.98-28.797-44.905v-472.248c0-27.26,22.105-49.366,49.366-49.366
				h937.063c8.971,0,17.347,2.379,24.583,6.592C3176.26,1515.192,3186.222,1531.202,3186.222,1549.491z"/>
		</g>
		<defs>
			
				<filter id="Adobe_OpacityMaskFilter_00000023283081335181690530000012241965111675640230_" filterUnits="userSpaceOnUse" x="2179.225" y="1500.125" width="829.408" height="570.981">
				<feFlood  style="flood-color:white;flood-opacity:1" result="back"/>
				<feBlend  in="SourceGraphic" in2="back" mode="normal"/>
			</filter>
		</defs>
		
			<mask maskUnits="userSpaceOnUse" x="2179.225" y="1500.125" width="829.408" height="570.981" id="SVGID_00000034793956409006404810000011880808896647550138_">
			<g style="filter:url(#Adobe_OpacityMaskFilter_00000023283081335181690530000012241965111675640230_);">
				<defs>
					
						<filter id="Adobe_OpacityMaskFilter_00000019653476892000745780000004323348984672589729_" filterUnits="userSpaceOnUse" x="2179.225" y="1500.125" width="829.408" height="570.981">
						<feFlood  style="flood-color:white;flood-opacity:1" result="back"/>
						<feBlend  in="SourceGraphic" in2="back" mode="normal"/>
					</filter>
				</defs>
				
					<mask maskUnits="userSpaceOnUse" x="2179.225" y="1500.125" width="829.408" height="570.981" id="SVGID_00000034793956409006404810000011880808896647550138_">
					<g style="filter:url(#Adobe_OpacityMaskFilter_00000019653476892000745780000004323348984672589729_);">
					</g>
				</mask>
				
					<linearGradient id="SVGID_00000008119041698959849120000006171315623583285635_" gradientUnits="userSpaceOnUse" x1="2632.9958" y1="1593.9973" x2="2497.3286" y2="2251.687">
					<stop  offset="0" style="stop-color:#FFFFFF"/>
					<stop  offset="1" style="stop-color:#000000"/>
				</linearGradient>
				
					<path style="mask:url(#SVGID_00000034793956409006404810000011880808896647550138_);fill:url(#SVGID_00000008119041698959849120000006171315623583285635_);" d="
					M3008.633,1500.125l-520.871,570.98h-287.969c-7.335,0-14.323-1.586-20.569-4.461l516.807-566.52H3008.633z"/>
			</g>
		</mask>
		
			<linearGradient id="SVGID_00000026870356111227320320000001967754272414020015_" gradientUnits="userSpaceOnUse" x1="2632.9958" y1="1593.9973" x2="2497.3286" y2="2251.687">
			<stop  offset="0" style="stop-color:#FFFFFF"/>
			<stop  offset="1" style="stop-color:#FFFFFF"/>
		</linearGradient>
		<path style="opacity:0.69;fill:url(#SVGID_00000026870356111227320320000001967754272414020015_);" d="M3008.633,1500.125
			l-520.871,570.98h-287.969c-7.335,0-14.323-1.586-20.569-4.461l516.807-566.52H3008.633z"/>
		<defs>
			
				<filter id="Adobe_OpacityMaskFilter_00000054959632222229239480000014408490028200817546_" filterUnits="userSpaceOnUse" x="2646.567" y="1506.717" width="539.655" height="564.388">
				<feFlood  style="flood-color:white;flood-opacity:1" result="back"/>
				<feBlend  in="SourceGraphic" in2="back" mode="normal"/>
			</filter>
		</defs>
		
			<mask maskUnits="userSpaceOnUse" x="2646.567" y="1506.717" width="539.655" height="564.388" id="SVGID_00000014598754108222989520000007795382305062114987_">
			<g style="filter:url(#Adobe_OpacityMaskFilter_00000054959632222229239480000014408490028200817546_);">
				<defs>
					
						<filter id="Adobe_OpacityMaskFilter_00000104667278485862131230000002842154722247517313_" filterUnits="userSpaceOnUse" x="2646.567" y="1506.717" width="539.655" height="564.388">
						<feFlood  style="flood-color:white;flood-opacity:1" result="back"/>
						<feBlend  in="SourceGraphic" in2="back" mode="normal"/>
					</filter>
				</defs>
				
					<mask maskUnits="userSpaceOnUse" x="2646.567" y="1506.717" width="539.655" height="564.388" id="SVGID_00000014598754108222989520000007795382305062114987_">
					<g style="filter:url(#Adobe_OpacityMaskFilter_00000104667278485862131230000002842154722247517313_);">
					</g>
				</mask>
				
					<linearGradient id="SVGID_00000029743594632114479630000015643724101059306156_" gradientUnits="userSpaceOnUse" x1="2957.6572" y1="1660.9679" x2="2821.9895" y2="2318.6599">
					<stop  offset="0" style="stop-color:#FFFFFF"/>
					<stop  offset="1" style="stop-color:#000000"/>
				</linearGradient>
				
					<path style="mask:url(#SVGID_00000014598754108222989520000007795382305062114987_);fill:url(#SVGID_00000029743594632114479630000015643724101059306156_);" d="
					M3186.222,1549.491v101.408l-383.33,420.206h-156.325l514.873-564.388C3176.26,1515.192,3186.222,1531.202,3186.222,1549.491z"
					/>
			</g>
		</mask>
		
			<linearGradient id="SVGID_00000109726882600738042560000001046054521498238900_" gradientUnits="userSpaceOnUse" x1="2957.6572" y1="1660.9679" x2="2821.9895" y2="2318.6599">
			<stop  offset="0" style="stop-color:#FFFFFF"/>
			<stop  offset="1" style="stop-color:#FFFFFF"/>
		</linearGradient>
		<path style="opacity:0.69;fill:url(#SVGID_00000109726882600738042560000001046054521498238900_);" d="M3186.222,1549.491v101.408
			l-383.33,420.206h-156.325l514.873-564.388C3176.26,1515.192,3186.222,1531.202,3186.222,1549.491z"/>
		<g>
			<path style="fill:#8E7575;" d="M3186.222,1549.491v81.632H2150.428v-81.632c0-27.26,22.105-49.366,49.366-49.366h937.063
				C3164.116,1500.125,3186.222,1522.231,3186.222,1549.491z"/>
		</g>
		<g>
			<path style="fill:#660107;" d="M3136.852,2083.498H2199.79c-34.058,0-61.768-27.707-61.768-61.768v-472.252
				c0-34.058,27.71-61.768,61.768-61.768h937.062c34.058,0,61.765,27.71,61.765,61.768v472.252
				C3198.617,2055.79,3170.91,2083.498,3136.852,2083.498z M2199.79,1512.495c-20.392,0-36.984,16.591-36.984,36.984v472.252
				c0,20.392,16.591,36.989,36.984,36.989h937.062c20.393,0,36.981-16.596,36.981-36.989v-472.252
				c0-20.392-16.589-36.984-36.981-36.984H2199.79z"/>
		</g>
		<g>
			<path style="fill:#660107;" d="M3186.225,1643.516H2150.414c-6.844,0-12.392-5.548-12.392-12.392
				c0-6.844,5.548-12.392,12.392-12.392h1035.811c6.844,0,12.392,5.548,12.392,12.392
				C3198.617,1637.967,3193.069,1643.516,3186.225,1643.516z"/>
		</g>
		<g>
			<path style="fill:#660107;" d="M3032.125,1512.495c-6.844,0-12.392-5.548-12.392-12.392v-336.222
				c0-6.844,5.548-12.392,12.392-12.392s12.392,5.548,12.392,12.392v336.222C3044.517,1506.946,3038.969,1512.495,3032.125,1512.495
				z"/>
		</g>
		<g>
			<ellipse style="fill:#F76531;" cx="2198.586" cy="1336.91" rx="73.732" ry="100.275"/>
		</g>
		<g>
			<ellipse style="fill:#F76531;" cx="3152.31" cy="1336.91" rx="73.732" ry="100.275"/>
		</g>
		<g>
			<path style="fill:#660107;" d="M2350.965,1512.495c-6.844,0-12.392-5.548-12.392-12.392v-336.222
				c0-6.844,5.548-12.392,12.392-12.392c6.844,0,12.392,5.548,12.392,12.392v336.222
				C2363.357,1506.946,2357.808,1512.495,2350.965,1512.495z"/>
		</g>
		<g>
			<path style="fill:#660107;" d="M2198.587,1449.578c-47.49,0-86.125-50.544-86.125-112.668s38.635-112.668,86.125-112.668
				c47.487,0,86.123,50.544,86.123,112.668S2246.074,1449.578,2198.587,1449.578z M2198.587,1249.025
				c-33.824,0-61.341,39.423-61.341,87.884c0,48.461,27.517,87.884,61.341,87.884c33.822,0,61.338-39.423,61.338-87.884
				C2259.926,1288.448,2232.409,1249.025,2198.587,1249.025z"/>
		</g>
		<g>
			<path style="fill:#660107;" d="M3152.308,1449.578c-47.487,0-86.123-50.544-86.123-112.668s38.635-112.668,86.123-112.668
				c47.49,0,86.125,50.544,86.125,112.668S3199.798,1449.578,3152.308,1449.578z M3152.308,1249.025
				c-33.822,0-61.338,39.423-61.338,87.884c0,48.461,27.517,87.884,61.338,87.884c33.824,0,61.341-39.423,61.341-87.884
				C3213.649,1288.448,3186.132,1249.025,3152.308,1249.025z"/>
		</g>
		<g>
			<path style="fill:#8E7575;" d="M1897.022,1500.103"/>
		</g>
		<g>
			<path style="fill:#660107;" d="M3469.728,2260.144h-89.05c-6.844,0-12.392-5.548-12.392-12.39c0-6.841,5.548-12.39,12.392-12.39
				h89.05c6.844,0,12.392,5.548,12.392,12.39C3482.12,2254.596,3476.572,2260.144,3469.728,2260.144z"/>
		</g>
	</g>
	<g>
		<path style="fill:#660107;" d="M3337.005,2861.002h-150.413c-85.842,0-158.648-82.487-172.787-193.692H2492.3
			c-14.139,111.205-86.942,193.692-172.784,193.692h-150.413c-85.842,0-158.648-82.487-172.787-193.692h-459.589
			c-0.517,0.029-0.981,0.029-1.496,0h-414.356c-14.139,111.205-86.942,193.692-172.784,193.692H797.678
			c-85.842,0-158.648-82.487-172.787-193.692H432.927c-13.722,0-24.884-11.16-24.884-24.882v-335.204
			c0-13.722,11.162-24.882,24.884-24.882h16.452v-921.617c-0.015-0.246-0.022-0.488-0.022-0.715c0-0.261,0.01-0.544,0.029-0.829
			l-0.007-57.913c0-19.029,3.286-37.691,9.769-55.468c0.151-0.444,0.344-0.964,0.566-1.493
			c23.686-63.002,84.685-105.31,151.892-105.31h2517.476c0.405,0,0.81,0.01,1.215,0.027
			c106.84,5.817,160.863,72.354,156.366,192.425l0.02,781.244l100.371,73.157c0.317,0.234,0.651,0.508,0.974,0.791
			c1.305,1.054,2.345,2.064,3.277,3.157c0.195,0.224,0.425,0.517,0.629,0.795c0.881,1.132,1.635,2.284,2.299,3.509
			c0.232,0.425,0.454,0.883,0.668,1.342c0.563,1.2,1.022,2.445,1.391,3.738c0.071,0.224,0.149,0.478,0.22,0.751
			c0.115,0.39,0.219,0.805,0.29,1.156l4.338,21.773h67.953c39.387-1.942,70.493,7.544,92.203,28.166l0,0
			c20.346,19.319,30.662,46.499,30.662,80.779v310.62c0,13.722-11.162,24.882-24.884,24.882h-57.283
			C3495.651,2778.515,3422.847,2861.002,3337.005,2861.002z M2481.089,2642.326h543.928c6.468,0,11.865,4.938,12.443,11.38
			c9.298,103.934,73.413,182.312,149.132,182.312h150.413c75.719,0,139.832-78.379,149.13-182.312
			c0.578-6.441,5.975-11.38,12.443-11.38h68.494l-0.1-310.517c0-27.161-7.698-48.246-22.883-62.666l0,0
			c-16.569-15.737-41.512-22.94-73.999-21.315c-0.205,0.01-0.41,0.015-0.612,0.015l-78.588,0.005
			c-5.958,0-11.087-4.206-12.25-10.052l-6.241-31.318c-0.046-0.151-0.107-0.356-0.142-0.473c-0.095-0.073-0.195-0.151-0.295-0.234
			l-105.129-76.627c-3.226-2.352-5.134-6.104-5.134-10.096l-0.01-788.066c4.014-107.449-39.367-161.925-132.612-167.004
			l-2517.471,0.005c-56.944,0-108.626,35.915-128.601,89.37c-0.105,0.283-0.222,0.564-0.349,0.839
			c-5.514,15.193-8.293,30.977-8.293,47.077v58.525c0,0.127-0.003,0.259-0.007,0.393l0.007,934.649
			c0,6.9-5.592,12.492-12.492,12.492h-28.944l0.1,335.102l203.075-0.103c6.468,0,11.865,4.938,12.443,11.38
			c9.298,103.934,73.413,182.312,149.132,182.312h150.413c75.719,0,139.831-78.379,149.13-182.312
			c0.578-6.441,5.975-11.38,12.443-11.38h426.075c0.161,0,0.322,0,0.483,0h471.305c6.468,0,11.865,4.938,12.443,11.38
			c9.298,103.934,73.413,182.312,149.132,182.312h150.413c75.719,0,139.831-78.379,149.13-182.312
			C2469.224,2647.265,2474.621,2642.326,2481.089,2642.326z"/>
	</g>
</g>
</svg>
